M48
;GenerationSoftware,Autodesk,EAGLE,9.1.3*%
;CreationDate,2018-12-04T08:52:56Z*%
FMAT,2
ICI,OFF
METRIC,TZ,000.000
T3C1.000
T2C1.016
T1C1.800
%
G90
M71
T1
X19830Y88410
X2630Y88410
X2630Y46210
X19830Y46210
T2
X8640Y33280
X11180Y33280
X13720Y33280
X16260Y33280
X18800Y33280
X21340Y33280
X23880Y33280
X26420Y33280
X28960Y33280
X31500Y33280
X34040Y33280
X36580Y33280
X39120Y33280
X41660Y33280
X44200Y33280
X46740Y33280
X84379Y23851
X90881Y23851
X84379Y19329
X90881Y19329
X84379Y14961
X90881Y14961
X84379Y10439
X90881Y10439
X84379Y32741
X90881Y32741
X84379Y28219
X90881Y28219
T3
X2540Y71120
X2540Y68580
X2540Y66040
X2540Y63500
X45720Y39370
X48260Y87630
X43180Y39370
X40640Y39370
X38100Y39370
X35560Y39370
X48260Y39370
X50800Y39370
X53340Y39370
X57404Y39370
X59944Y39370
X62484Y39370
X65024Y39370
X67564Y39370
X70104Y39370
X72644Y39370
X75184Y39370
X45720Y87630
X43180Y87630
X40640Y87630
X38100Y87630
X35560Y87630
X53340Y87630
X55880Y87630
X58420Y87630
X60960Y87630
X63500Y87630
X66040Y87630
X77724Y39370
X80264Y39370
X68580Y87630
X71120Y87630
M30