G04 EAGLE Gerber X2 export*
%TF.Part,Single*%
%TF.FileFunction,Copper,L1,Top,Mixed*%
%TF.FilePolarity,Positive*%
%TF.GenerationSoftware,Autodesk,EAGLE,9.1.3*%
%TF.CreationDate,2018-12-04T08:52:57Z*%
G75*
%MOMM*%
%FSLAX34Y34*%
%LPD*%
%AMOC8*
5,1,8,0,0,1.08239X$1,22.5*%
G01*
%ADD10R,1.879600X1.879600*%
%ADD11C,1.879600*%
%ADD12R,1.508000X1.508000*%
%ADD13C,1.508000*%
%ADD14P,1.814519X8X202.500000*%
%ADD15C,1.000000*%


D10*
X86400Y332800D03*
D11*
X111800Y332800D03*
X137200Y332800D03*
X162600Y332800D03*
X188000Y332800D03*
X213400Y332800D03*
X238800Y332800D03*
X264200Y332800D03*
X289600Y332800D03*
X315000Y332800D03*
X340400Y332800D03*
X365800Y332800D03*
X391200Y332800D03*
X416600Y332800D03*
X442000Y332800D03*
X467400Y332800D03*
X843788Y238506D03*
X908812Y238506D03*
X843788Y193294D03*
X908812Y193294D03*
X843788Y149606D03*
X908812Y149606D03*
X843788Y104394D03*
X908812Y104394D03*
X843788Y327406D03*
X908812Y327406D03*
X843788Y282194D03*
X908812Y282194D03*
D12*
X25400Y711200D03*
D13*
X25400Y685800D03*
X25400Y660400D03*
X25400Y635000D03*
D14*
X457200Y393700D03*
X482600Y876300D03*
X431800Y393700D03*
X406400Y393700D03*
X381000Y393700D03*
X355600Y393700D03*
X482600Y393700D03*
X508000Y393700D03*
X533400Y393700D03*
X574040Y393700D03*
X599440Y393700D03*
X624840Y393700D03*
X650240Y393700D03*
X675640Y393700D03*
X701040Y393700D03*
X726440Y393700D03*
X751840Y393700D03*
X457200Y876300D03*
X431800Y876300D03*
X406400Y876300D03*
X381000Y876300D03*
X355600Y876300D03*
X533400Y876300D03*
X558800Y876300D03*
X584200Y876300D03*
X609600Y876300D03*
X635000Y876300D03*
X660400Y876300D03*
X777240Y393700D03*
X802640Y393700D03*
X685800Y876300D03*
X711200Y876300D03*
D15*
X622300Y393700D02*
X622300Y266700D01*
X403225Y266700D01*
X339725Y330200D01*
X622300Y393700D02*
X624840Y393700D01*
X340400Y332800D02*
X339725Y330200D01*
X596900Y282575D02*
X596900Y393700D01*
X596900Y282575D02*
X412750Y282575D01*
X365125Y330200D01*
X596900Y393700D02*
X599440Y393700D01*
X365800Y332800D02*
X365125Y330200D01*
X571500Y298450D02*
X571500Y393700D01*
X571500Y298450D02*
X422275Y298450D01*
X390525Y330200D01*
X571500Y393700D02*
X574040Y393700D01*
X391200Y332800D02*
X390525Y330200D01*
X492125Y352425D02*
X533400Y393700D01*
X492125Y352425D02*
X434975Y352425D01*
X415925Y333375D01*
X416600Y332800D01*
X25400Y711200D02*
X171450Y857250D01*
X565150Y857250D02*
X590550Y857250D01*
X565150Y857250D02*
X171450Y857250D01*
X590550Y857250D02*
X609600Y876300D01*
X114300Y330200D02*
X114300Y219075D01*
X679450Y219075D01*
X822325Y361950D01*
X822325Y412750D01*
X568325Y412750D01*
X552450Y396875D01*
X552450Y349250D01*
X511175Y349250D01*
X476250Y314325D01*
X457200Y314325D01*
X441325Y330200D01*
X114300Y330200D02*
X111800Y332800D01*
X441325Y330200D02*
X442000Y332800D01*
X565150Y415925D02*
X565150Y854075D01*
X565150Y857250D01*
X565150Y415925D02*
X568325Y412750D01*
X647700Y393700D02*
X647700Y250825D01*
X292100Y250825D01*
X212725Y330200D01*
X647700Y393700D02*
X650240Y393700D01*
X213400Y332800D02*
X212725Y330200D01*
X673100Y393700D02*
X673100Y234950D01*
X257175Y234950D01*
X161925Y330200D01*
X673100Y393700D02*
X675640Y393700D01*
X162600Y332800D02*
X161925Y330200D01*
X457200Y368300D02*
X482600Y393700D01*
X457200Y368300D02*
X403225Y368300D01*
X387350Y352425D01*
X155575Y352425D01*
X136525Y333375D01*
X137200Y332800D01*
X266700Y444500D02*
X25400Y685800D01*
X266700Y444500D02*
X406400Y444500D01*
X457200Y393700D01*
X171450Y514350D02*
X25400Y660400D01*
X171450Y514350D02*
X171450Y428625D01*
X396875Y428625D01*
X431800Y393700D01*
X355600Y393700D02*
X346075Y384175D01*
X82550Y384175D01*
X50800Y352425D01*
X50800Y187325D01*
X809625Y187325D01*
X841375Y219075D01*
X850900Y219075D01*
X863600Y231775D01*
X863600Y327025D01*
X844550Y327025D01*
X843788Y327406D01*
X381000Y393700D02*
X361950Y412750D01*
X88900Y412750D01*
X34925Y358775D01*
X34925Y152400D01*
X841375Y152400D01*
X843788Y149606D01*
X406400Y393700D02*
X381000Y368300D01*
X88900Y368300D01*
X66675Y346075D01*
X66675Y203200D01*
X803275Y203200D01*
X838200Y238125D01*
X841375Y238125D01*
X843788Y238506D01*
M02*
