G04 EAGLE Gerber X2 export*
%TF.Part,Single*%
%TF.FileFunction,Copper,L2,Bot,Mixed*%
%TF.FilePolarity,Positive*%
%TF.GenerationSoftware,Autodesk,EAGLE,9.1.3*%
%TF.CreationDate,2018-12-04T08:52:57Z*%
G75*
%MOMM*%
%FSLAX34Y34*%
%LPD*%
%AMOC8*
5,1,8,0,0,1.08239X$1,22.5*%
G01*
%ADD10R,1.879600X1.879600*%
%ADD11C,1.879600*%
%ADD12R,1.508000X1.508000*%
%ADD13C,1.508000*%
%ADD14P,1.814519X8X202.500000*%

G36*
X1001798Y10164D02*
X1001798Y10164D01*
X1001817Y10162D01*
X1001919Y10184D01*
X1002021Y10200D01*
X1002038Y10210D01*
X1002058Y10214D01*
X1002147Y10267D01*
X1002238Y10316D01*
X1002252Y10330D01*
X1002269Y10340D01*
X1002336Y10419D01*
X1002408Y10494D01*
X1002416Y10512D01*
X1002429Y10527D01*
X1002468Y10623D01*
X1002511Y10717D01*
X1002513Y10737D01*
X1002521Y10755D01*
X1002539Y10922D01*
X1002539Y903378D01*
X1002536Y903398D01*
X1002538Y903417D01*
X1002516Y903519D01*
X1002500Y903621D01*
X1002490Y903638D01*
X1002486Y903658D01*
X1002433Y903747D01*
X1002384Y903838D01*
X1002370Y903852D01*
X1002360Y903869D01*
X1002281Y903936D01*
X1002206Y904008D01*
X1002188Y904016D01*
X1002173Y904029D01*
X1002077Y904068D01*
X1001983Y904111D01*
X1001963Y904113D01*
X1001945Y904121D01*
X1001778Y904139D01*
X203817Y904139D01*
X203721Y904124D01*
X203624Y904114D01*
X203600Y904104D01*
X203575Y904100D01*
X203489Y904054D01*
X203400Y904014D01*
X203380Y903997D01*
X203357Y903984D01*
X203290Y903914D01*
X203218Y903848D01*
X203206Y903825D01*
X203188Y903806D01*
X203147Y903718D01*
X203100Y903632D01*
X203095Y903607D01*
X203084Y903583D01*
X203073Y903486D01*
X203056Y903390D01*
X203060Y903364D01*
X203057Y903339D01*
X203078Y903243D01*
X203092Y903147D01*
X203104Y903124D01*
X203109Y903098D01*
X203159Y903015D01*
X203203Y902928D01*
X203222Y902909D01*
X203236Y902887D01*
X203309Y902824D01*
X203379Y902756D01*
X203408Y902740D01*
X203422Y902727D01*
X203453Y902715D01*
X203526Y902675D01*
X209154Y900344D01*
X214544Y894954D01*
X217461Y887911D01*
X217461Y880289D01*
X214544Y873246D01*
X209154Y867856D01*
X202111Y864939D01*
X194489Y864939D01*
X187446Y867856D01*
X182056Y873246D01*
X179139Y880289D01*
X179139Y887911D01*
X182056Y894954D01*
X187446Y900344D01*
X193074Y902675D01*
X193157Y902726D01*
X193243Y902772D01*
X193261Y902791D01*
X193283Y902804D01*
X193345Y902879D01*
X193412Y902950D01*
X193423Y902974D01*
X193440Y902994D01*
X193475Y903085D01*
X193516Y903173D01*
X193519Y903199D01*
X193528Y903223D01*
X193532Y903321D01*
X193543Y903417D01*
X193537Y903443D01*
X193538Y903469D01*
X193511Y903563D01*
X193491Y903658D01*
X193477Y903680D01*
X193470Y903705D01*
X193414Y903785D01*
X193364Y903869D01*
X193345Y903886D01*
X193330Y903907D01*
X193252Y903966D01*
X193178Y904029D01*
X193153Y904039D01*
X193132Y904054D01*
X193040Y904084D01*
X192949Y904121D01*
X192917Y904124D01*
X192898Y904130D01*
X192865Y904130D01*
X192783Y904139D01*
X31817Y904139D01*
X31721Y904124D01*
X31624Y904114D01*
X31600Y904104D01*
X31575Y904100D01*
X31489Y904054D01*
X31400Y904014D01*
X31380Y903997D01*
X31357Y903984D01*
X31290Y903914D01*
X31218Y903848D01*
X31206Y903825D01*
X31188Y903806D01*
X31147Y903718D01*
X31100Y903632D01*
X31095Y903607D01*
X31084Y903583D01*
X31073Y903486D01*
X31056Y903390D01*
X31060Y903364D01*
X31057Y903339D01*
X31078Y903243D01*
X31092Y903147D01*
X31104Y903124D01*
X31109Y903098D01*
X31159Y903015D01*
X31203Y902928D01*
X31222Y902909D01*
X31236Y902887D01*
X31309Y902824D01*
X31379Y902756D01*
X31408Y902740D01*
X31422Y902727D01*
X31453Y902715D01*
X31526Y902675D01*
X37154Y900344D01*
X42544Y894954D01*
X45461Y887911D01*
X45461Y880289D01*
X42544Y873246D01*
X37154Y867856D01*
X30111Y864939D01*
X22489Y864939D01*
X15446Y867856D01*
X11460Y871842D01*
X11402Y871884D01*
X11350Y871934D01*
X11303Y871956D01*
X11261Y871986D01*
X11192Y872007D01*
X11127Y872037D01*
X11075Y872043D01*
X11025Y872058D01*
X10954Y872056D01*
X10883Y872064D01*
X10832Y872053D01*
X10780Y872052D01*
X10712Y872027D01*
X10642Y872012D01*
X10597Y871985D01*
X10549Y871967D01*
X10493Y871923D01*
X10431Y871886D01*
X10397Y871846D01*
X10357Y871814D01*
X10318Y871753D01*
X10271Y871699D01*
X10252Y871651D01*
X10224Y871607D01*
X10206Y871537D01*
X10179Y871471D01*
X10171Y871399D01*
X10163Y871368D01*
X10165Y871345D01*
X10161Y871304D01*
X10161Y474896D01*
X10172Y474825D01*
X10174Y474753D01*
X10192Y474704D01*
X10200Y474653D01*
X10234Y474590D01*
X10259Y474522D01*
X10291Y474482D01*
X10316Y474436D01*
X10368Y474386D01*
X10412Y474330D01*
X10456Y474302D01*
X10494Y474266D01*
X10559Y474236D01*
X10619Y474197D01*
X10670Y474185D01*
X10717Y474163D01*
X10788Y474155D01*
X10858Y474137D01*
X10910Y474141D01*
X10961Y474136D01*
X11032Y474151D01*
X11103Y474156D01*
X11151Y474177D01*
X11202Y474188D01*
X11263Y474225D01*
X11329Y474253D01*
X11385Y474298D01*
X11413Y474314D01*
X11428Y474332D01*
X11460Y474358D01*
X15446Y478344D01*
X22489Y481261D01*
X30111Y481261D01*
X37154Y478344D01*
X42544Y472954D01*
X45461Y465911D01*
X45461Y458289D01*
X42544Y451246D01*
X37154Y445856D01*
X30111Y442939D01*
X22489Y442939D01*
X15446Y445856D01*
X11460Y449842D01*
X11402Y449884D01*
X11350Y449934D01*
X11303Y449956D01*
X11261Y449986D01*
X11192Y450007D01*
X11127Y450037D01*
X11075Y450043D01*
X11025Y450058D01*
X10954Y450056D01*
X10883Y450064D01*
X10832Y450053D01*
X10780Y450052D01*
X10712Y450027D01*
X10642Y450012D01*
X10597Y449985D01*
X10549Y449967D01*
X10493Y449923D01*
X10431Y449886D01*
X10397Y449846D01*
X10357Y449814D01*
X10318Y449753D01*
X10271Y449699D01*
X10252Y449651D01*
X10224Y449607D01*
X10206Y449537D01*
X10179Y449471D01*
X10171Y449399D01*
X10163Y449368D01*
X10165Y449345D01*
X10161Y449304D01*
X10161Y10922D01*
X10164Y10902D01*
X10162Y10883D01*
X10184Y10781D01*
X10200Y10679D01*
X10210Y10662D01*
X10214Y10642D01*
X10267Y10553D01*
X10316Y10462D01*
X10330Y10448D01*
X10340Y10431D01*
X10419Y10364D01*
X10494Y10292D01*
X10512Y10284D01*
X10527Y10271D01*
X10623Y10232D01*
X10717Y10189D01*
X10737Y10187D01*
X10755Y10179D01*
X10922Y10161D01*
X1001778Y10161D01*
X1001798Y10164D01*
G37*
%LPC*%
G36*
X109135Y319401D02*
X109135Y319401D01*
X104210Y321441D01*
X100441Y325210D01*
X99803Y326750D01*
X99752Y326833D01*
X99706Y326919D01*
X99687Y326937D01*
X99674Y326959D01*
X99599Y327021D01*
X99528Y327088D01*
X99504Y327099D01*
X99484Y327116D01*
X99393Y327151D01*
X99305Y327192D01*
X99279Y327195D01*
X99255Y327204D01*
X99157Y327208D01*
X99061Y327219D01*
X99035Y327213D01*
X99009Y327215D01*
X98915Y327187D01*
X98820Y327167D01*
X98798Y327153D01*
X98773Y327146D01*
X98693Y327091D01*
X98609Y327041D01*
X98592Y327021D01*
X98571Y327006D01*
X98512Y326928D01*
X98449Y326854D01*
X98439Y326829D01*
X98424Y326808D01*
X98394Y326716D01*
X98357Y326626D01*
X98354Y326593D01*
X98348Y326575D01*
X98348Y326542D01*
X98339Y326459D01*
X98339Y323068D01*
X98166Y322421D01*
X97831Y321842D01*
X97358Y321369D01*
X96779Y321034D01*
X96132Y320861D01*
X87923Y320861D01*
X87923Y332038D01*
X87920Y332058D01*
X87922Y332077D01*
X87900Y332179D01*
X87883Y332281D01*
X87874Y332298D01*
X87870Y332318D01*
X87817Y332407D01*
X87768Y332498D01*
X87754Y332512D01*
X87744Y332529D01*
X87665Y332596D01*
X87590Y332667D01*
X87572Y332676D01*
X87557Y332689D01*
X87461Y332727D01*
X87367Y332771D01*
X87347Y332773D01*
X87329Y332781D01*
X87162Y332799D01*
X86399Y332799D01*
X86399Y332801D01*
X87162Y332801D01*
X87182Y332804D01*
X87201Y332802D01*
X87303Y332824D01*
X87405Y332841D01*
X87422Y332850D01*
X87442Y332854D01*
X87531Y332907D01*
X87622Y332956D01*
X87636Y332970D01*
X87653Y332980D01*
X87720Y333059D01*
X87791Y333134D01*
X87800Y333152D01*
X87813Y333167D01*
X87852Y333263D01*
X87895Y333357D01*
X87897Y333377D01*
X87905Y333395D01*
X87923Y333562D01*
X87923Y344739D01*
X96132Y344739D01*
X96779Y344566D01*
X97358Y344231D01*
X97831Y343758D01*
X98166Y343179D01*
X98339Y342532D01*
X98339Y339141D01*
X98354Y339045D01*
X98364Y338948D01*
X98374Y338924D01*
X98378Y338898D01*
X98424Y338813D01*
X98464Y338723D01*
X98481Y338704D01*
X98494Y338681D01*
X98564Y338614D01*
X98630Y338542D01*
X98653Y338530D01*
X98672Y338512D01*
X98760Y338471D01*
X98846Y338424D01*
X98871Y338419D01*
X98895Y338408D01*
X98992Y338397D01*
X99088Y338380D01*
X99114Y338384D01*
X99139Y338381D01*
X99235Y338402D01*
X99331Y338416D01*
X99354Y338428D01*
X99380Y338433D01*
X99463Y338483D01*
X99550Y338527D01*
X99569Y338546D01*
X99591Y338559D01*
X99654Y338633D01*
X99722Y338703D01*
X99738Y338731D01*
X99751Y338746D01*
X99763Y338777D01*
X99803Y338850D01*
X100441Y340390D01*
X104210Y344159D01*
X109135Y346199D01*
X114465Y346199D01*
X119390Y344159D01*
X123159Y340390D01*
X123797Y338850D01*
X123835Y338789D01*
X123864Y338724D01*
X123899Y338685D01*
X123926Y338641D01*
X123982Y338595D01*
X124030Y338542D01*
X124076Y338517D01*
X124116Y338484D01*
X124183Y338458D01*
X124246Y338424D01*
X124297Y338415D01*
X124345Y338396D01*
X124417Y338393D01*
X124488Y338380D01*
X124539Y338388D01*
X124591Y338386D01*
X124660Y338405D01*
X124731Y338416D01*
X124777Y338440D01*
X124827Y338454D01*
X124886Y338495D01*
X124950Y338527D01*
X124987Y338565D01*
X125029Y338594D01*
X125072Y338652D01*
X125122Y338703D01*
X125157Y338766D01*
X125176Y338792D01*
X125183Y338814D01*
X125203Y338850D01*
X125841Y340390D01*
X129610Y344159D01*
X134535Y346199D01*
X139865Y346199D01*
X144790Y344159D01*
X148559Y340390D01*
X149197Y338850D01*
X149235Y338789D01*
X149264Y338724D01*
X149299Y338685D01*
X149326Y338641D01*
X149382Y338595D01*
X149430Y338542D01*
X149476Y338517D01*
X149516Y338484D01*
X149583Y338458D01*
X149646Y338424D01*
X149697Y338415D01*
X149745Y338396D01*
X149817Y338393D01*
X149888Y338380D01*
X149939Y338388D01*
X149991Y338386D01*
X150060Y338405D01*
X150131Y338416D01*
X150177Y338440D01*
X150227Y338454D01*
X150286Y338495D01*
X150350Y338527D01*
X150387Y338565D01*
X150429Y338594D01*
X150472Y338652D01*
X150522Y338703D01*
X150557Y338766D01*
X150576Y338792D01*
X150583Y338814D01*
X150603Y338850D01*
X151241Y340390D01*
X155010Y344159D01*
X159935Y346199D01*
X165265Y346199D01*
X170190Y344159D01*
X173959Y340390D01*
X175385Y336947D01*
X175438Y336861D01*
X175487Y336771D01*
X175503Y336756D01*
X175515Y336738D01*
X175593Y336673D01*
X175667Y336604D01*
X175687Y336595D01*
X175704Y336581D01*
X175799Y336544D01*
X175891Y336503D01*
X175913Y336500D01*
X175934Y336493D01*
X176035Y336488D01*
X176136Y336478D01*
X176157Y336483D01*
X176180Y336482D01*
X176277Y336510D01*
X176376Y336533D01*
X176395Y336544D01*
X176416Y336551D01*
X176499Y336608D01*
X176585Y336661D01*
X176600Y336678D01*
X176618Y336691D01*
X176678Y336772D01*
X176743Y336850D01*
X176755Y336875D01*
X176765Y336888D01*
X176775Y336919D01*
X176812Y337003D01*
X176936Y337383D01*
X177789Y339057D01*
X178894Y340578D01*
X180222Y341906D01*
X181743Y343011D01*
X183417Y343864D01*
X185204Y344445D01*
X186477Y344646D01*
X186477Y333562D01*
X186480Y333542D01*
X186478Y333523D01*
X186500Y333421D01*
X186517Y333319D01*
X186526Y333302D01*
X186530Y333282D01*
X186583Y333193D01*
X186632Y333102D01*
X186646Y333088D01*
X186656Y333071D01*
X186735Y333004D01*
X186810Y332933D01*
X186828Y332924D01*
X186843Y332911D01*
X186939Y332873D01*
X187033Y332829D01*
X187053Y332827D01*
X187071Y332819D01*
X187238Y332801D01*
X188762Y332801D01*
X188782Y332804D01*
X188801Y332802D01*
X188903Y332824D01*
X189005Y332841D01*
X189022Y332850D01*
X189042Y332854D01*
X189131Y332907D01*
X189222Y332956D01*
X189236Y332970D01*
X189253Y332980D01*
X189320Y333059D01*
X189391Y333134D01*
X189400Y333152D01*
X189413Y333167D01*
X189452Y333263D01*
X189495Y333357D01*
X189497Y333377D01*
X189505Y333395D01*
X189523Y333562D01*
X189523Y344646D01*
X190796Y344445D01*
X192583Y343864D01*
X194257Y343011D01*
X195778Y341906D01*
X197106Y340578D01*
X198211Y339057D01*
X199064Y337383D01*
X199188Y337003D01*
X199234Y336913D01*
X199275Y336820D01*
X199290Y336804D01*
X199300Y336784D01*
X199373Y336714D01*
X199442Y336639D01*
X199461Y336628D01*
X199477Y336613D01*
X199568Y336569D01*
X199657Y336520D01*
X199679Y336516D01*
X199699Y336507D01*
X199799Y336495D01*
X199899Y336477D01*
X199921Y336480D01*
X199943Y336477D01*
X200042Y336498D01*
X200143Y336513D01*
X200162Y336523D01*
X200184Y336527D01*
X200271Y336578D01*
X200362Y336624D01*
X200377Y336640D01*
X200396Y336651D01*
X200463Y336727D01*
X200534Y336800D01*
X200547Y336824D01*
X200558Y336836D01*
X200571Y336866D01*
X200615Y336947D01*
X202041Y340390D01*
X205810Y344159D01*
X210735Y346199D01*
X216065Y346199D01*
X220990Y344159D01*
X224759Y340390D01*
X225397Y338850D01*
X225435Y338789D01*
X225464Y338724D01*
X225499Y338685D01*
X225526Y338641D01*
X225582Y338595D01*
X225630Y338542D01*
X225676Y338517D01*
X225716Y338484D01*
X225783Y338458D01*
X225846Y338424D01*
X225897Y338415D01*
X225945Y338396D01*
X226017Y338393D01*
X226088Y338380D01*
X226139Y338388D01*
X226191Y338386D01*
X226260Y338405D01*
X226331Y338416D01*
X226377Y338440D01*
X226427Y338454D01*
X226486Y338495D01*
X226550Y338527D01*
X226587Y338565D01*
X226629Y338594D01*
X226672Y338652D01*
X226722Y338703D01*
X226757Y338766D01*
X226776Y338792D01*
X226783Y338814D01*
X226803Y338850D01*
X227441Y340390D01*
X231210Y344159D01*
X236135Y346199D01*
X241465Y346199D01*
X246390Y344159D01*
X250159Y340390D01*
X250797Y338850D01*
X250835Y338789D01*
X250864Y338724D01*
X250899Y338685D01*
X250926Y338641D01*
X250982Y338595D01*
X251030Y338542D01*
X251076Y338517D01*
X251116Y338484D01*
X251183Y338458D01*
X251246Y338424D01*
X251297Y338415D01*
X251345Y338396D01*
X251417Y338393D01*
X251488Y338380D01*
X251539Y338388D01*
X251591Y338386D01*
X251660Y338405D01*
X251731Y338416D01*
X251777Y338440D01*
X251827Y338454D01*
X251886Y338495D01*
X251950Y338527D01*
X251987Y338565D01*
X252029Y338594D01*
X252072Y338652D01*
X252122Y338703D01*
X252157Y338766D01*
X252176Y338792D01*
X252183Y338814D01*
X252203Y338850D01*
X252841Y340390D01*
X256610Y344159D01*
X261535Y346199D01*
X266865Y346199D01*
X271790Y344159D01*
X275559Y340390D01*
X276197Y338850D01*
X276235Y338789D01*
X276264Y338724D01*
X276299Y338685D01*
X276326Y338641D01*
X276382Y338595D01*
X276430Y338542D01*
X276476Y338517D01*
X276516Y338484D01*
X276583Y338458D01*
X276646Y338424D01*
X276697Y338415D01*
X276745Y338396D01*
X276817Y338393D01*
X276888Y338380D01*
X276939Y338388D01*
X276991Y338386D01*
X277060Y338405D01*
X277131Y338416D01*
X277177Y338440D01*
X277227Y338454D01*
X277286Y338495D01*
X277350Y338527D01*
X277387Y338565D01*
X277429Y338594D01*
X277472Y338652D01*
X277522Y338703D01*
X277557Y338766D01*
X277576Y338792D01*
X277583Y338814D01*
X277603Y338850D01*
X278241Y340390D01*
X282010Y344159D01*
X286935Y346199D01*
X292265Y346199D01*
X297190Y344159D01*
X300959Y340390D01*
X301597Y338850D01*
X301635Y338789D01*
X301664Y338724D01*
X301699Y338685D01*
X301726Y338641D01*
X301782Y338595D01*
X301830Y338542D01*
X301876Y338517D01*
X301916Y338484D01*
X301983Y338458D01*
X302046Y338424D01*
X302097Y338415D01*
X302145Y338396D01*
X302217Y338393D01*
X302288Y338380D01*
X302339Y338388D01*
X302391Y338386D01*
X302460Y338405D01*
X302531Y338416D01*
X302577Y338440D01*
X302627Y338454D01*
X302686Y338495D01*
X302750Y338527D01*
X302787Y338565D01*
X302829Y338594D01*
X302872Y338652D01*
X302922Y338703D01*
X302957Y338766D01*
X302976Y338792D01*
X302983Y338814D01*
X303003Y338850D01*
X303641Y340390D01*
X307410Y344159D01*
X312335Y346199D01*
X317665Y346199D01*
X322590Y344159D01*
X326359Y340390D01*
X326997Y338850D01*
X327035Y338789D01*
X327064Y338724D01*
X327099Y338685D01*
X327126Y338641D01*
X327182Y338595D01*
X327230Y338542D01*
X327276Y338517D01*
X327316Y338484D01*
X327383Y338458D01*
X327446Y338424D01*
X327497Y338415D01*
X327545Y338396D01*
X327617Y338393D01*
X327688Y338380D01*
X327739Y338388D01*
X327791Y338386D01*
X327860Y338405D01*
X327931Y338416D01*
X327977Y338440D01*
X328027Y338454D01*
X328086Y338495D01*
X328150Y338527D01*
X328187Y338565D01*
X328229Y338594D01*
X328272Y338652D01*
X328322Y338703D01*
X328357Y338766D01*
X328376Y338792D01*
X328383Y338814D01*
X328403Y338850D01*
X329041Y340390D01*
X332810Y344159D01*
X337735Y346199D01*
X343065Y346199D01*
X347990Y344159D01*
X351759Y340390D01*
X352397Y338850D01*
X352435Y338789D01*
X352464Y338724D01*
X352499Y338685D01*
X352526Y338641D01*
X352582Y338595D01*
X352630Y338542D01*
X352676Y338517D01*
X352716Y338484D01*
X352783Y338458D01*
X352846Y338424D01*
X352897Y338415D01*
X352945Y338396D01*
X353017Y338393D01*
X353088Y338380D01*
X353139Y338388D01*
X353191Y338386D01*
X353260Y338405D01*
X353331Y338416D01*
X353377Y338440D01*
X353427Y338454D01*
X353486Y338495D01*
X353550Y338527D01*
X353587Y338565D01*
X353629Y338594D01*
X353672Y338652D01*
X353722Y338703D01*
X353757Y338766D01*
X353776Y338792D01*
X353783Y338814D01*
X353803Y338850D01*
X354441Y340390D01*
X358210Y344159D01*
X363135Y346199D01*
X368465Y346199D01*
X373390Y344159D01*
X377159Y340390D01*
X377797Y338850D01*
X377835Y338789D01*
X377864Y338724D01*
X377899Y338685D01*
X377926Y338641D01*
X377982Y338595D01*
X378030Y338542D01*
X378076Y338517D01*
X378116Y338484D01*
X378183Y338458D01*
X378246Y338424D01*
X378297Y338415D01*
X378345Y338396D01*
X378417Y338393D01*
X378488Y338380D01*
X378539Y338388D01*
X378591Y338386D01*
X378660Y338405D01*
X378731Y338416D01*
X378777Y338440D01*
X378827Y338454D01*
X378886Y338495D01*
X378950Y338527D01*
X378987Y338565D01*
X379029Y338594D01*
X379072Y338652D01*
X379122Y338703D01*
X379157Y338766D01*
X379176Y338792D01*
X379183Y338814D01*
X379203Y338850D01*
X379841Y340390D01*
X383610Y344159D01*
X388535Y346199D01*
X393865Y346199D01*
X398790Y344159D01*
X402559Y340390D01*
X403197Y338850D01*
X403235Y338789D01*
X403264Y338724D01*
X403299Y338685D01*
X403326Y338641D01*
X403382Y338595D01*
X403430Y338542D01*
X403476Y338517D01*
X403516Y338484D01*
X403583Y338458D01*
X403646Y338424D01*
X403697Y338415D01*
X403745Y338396D01*
X403817Y338393D01*
X403888Y338380D01*
X403939Y338388D01*
X403991Y338386D01*
X404060Y338405D01*
X404131Y338416D01*
X404177Y338440D01*
X404227Y338454D01*
X404286Y338495D01*
X404350Y338527D01*
X404387Y338565D01*
X404429Y338594D01*
X404472Y338652D01*
X404522Y338703D01*
X404557Y338766D01*
X404576Y338792D01*
X404583Y338814D01*
X404603Y338850D01*
X405241Y340390D01*
X409010Y344159D01*
X413935Y346199D01*
X419265Y346199D01*
X424190Y344159D01*
X427959Y340390D01*
X428597Y338850D01*
X428635Y338789D01*
X428664Y338724D01*
X428699Y338685D01*
X428726Y338641D01*
X428782Y338595D01*
X428830Y338542D01*
X428876Y338517D01*
X428916Y338484D01*
X428983Y338458D01*
X429046Y338424D01*
X429097Y338415D01*
X429145Y338396D01*
X429217Y338393D01*
X429288Y338380D01*
X429339Y338388D01*
X429391Y338386D01*
X429460Y338405D01*
X429531Y338416D01*
X429577Y338440D01*
X429627Y338454D01*
X429686Y338495D01*
X429750Y338527D01*
X429787Y338565D01*
X429829Y338594D01*
X429872Y338652D01*
X429922Y338703D01*
X429957Y338766D01*
X429976Y338792D01*
X429983Y338814D01*
X430003Y338850D01*
X430641Y340390D01*
X434410Y344159D01*
X439335Y346199D01*
X444665Y346199D01*
X449590Y344159D01*
X453359Y340390D01*
X454785Y336947D01*
X454838Y336861D01*
X454887Y336771D01*
X454903Y336756D01*
X454915Y336738D01*
X454993Y336673D01*
X455067Y336604D01*
X455087Y336595D01*
X455104Y336581D01*
X455199Y336544D01*
X455291Y336503D01*
X455313Y336500D01*
X455334Y336493D01*
X455435Y336488D01*
X455536Y336478D01*
X455557Y336483D01*
X455580Y336482D01*
X455677Y336510D01*
X455776Y336533D01*
X455795Y336544D01*
X455816Y336551D01*
X455899Y336608D01*
X455985Y336661D01*
X456000Y336678D01*
X456018Y336691D01*
X456078Y336772D01*
X456143Y336850D01*
X456155Y336875D01*
X456165Y336888D01*
X456175Y336919D01*
X456212Y337003D01*
X456336Y337383D01*
X457189Y339057D01*
X458294Y340578D01*
X459622Y341906D01*
X461143Y343011D01*
X462817Y343864D01*
X464604Y344445D01*
X465877Y344646D01*
X465877Y333562D01*
X465880Y333542D01*
X465878Y333523D01*
X465900Y333421D01*
X465917Y333319D01*
X465926Y333302D01*
X465930Y333282D01*
X465983Y333193D01*
X466032Y333102D01*
X466046Y333088D01*
X466056Y333071D01*
X466135Y333004D01*
X466210Y332933D01*
X466228Y332924D01*
X466243Y332911D01*
X466339Y332873D01*
X466433Y332829D01*
X466453Y332827D01*
X466471Y332819D01*
X466638Y332801D01*
X467401Y332801D01*
X467401Y332799D01*
X466638Y332799D01*
X466618Y332796D01*
X466599Y332798D01*
X466497Y332776D01*
X466395Y332759D01*
X466378Y332750D01*
X466358Y332746D01*
X466269Y332693D01*
X466178Y332644D01*
X466164Y332630D01*
X466147Y332620D01*
X466080Y332541D01*
X466009Y332466D01*
X466000Y332448D01*
X465987Y332433D01*
X465948Y332337D01*
X465905Y332243D01*
X465903Y332223D01*
X465895Y332205D01*
X465877Y332038D01*
X465877Y320954D01*
X464604Y321155D01*
X462817Y321736D01*
X461143Y322589D01*
X459622Y323694D01*
X458294Y325022D01*
X457189Y326543D01*
X456336Y328217D01*
X456212Y328597D01*
X456166Y328687D01*
X456125Y328780D01*
X456110Y328796D01*
X456100Y328816D01*
X456027Y328886D01*
X455958Y328961D01*
X455939Y328972D01*
X455923Y328987D01*
X455832Y329031D01*
X455743Y329080D01*
X455721Y329084D01*
X455701Y329093D01*
X455601Y329105D01*
X455501Y329123D01*
X455479Y329120D01*
X455457Y329123D01*
X455358Y329102D01*
X455257Y329087D01*
X455238Y329077D01*
X455216Y329073D01*
X455129Y329022D01*
X455038Y328976D01*
X455023Y328960D01*
X455004Y328949D01*
X454937Y328873D01*
X454866Y328800D01*
X454853Y328776D01*
X454842Y328764D01*
X454829Y328734D01*
X454785Y328653D01*
X453359Y325210D01*
X449590Y321441D01*
X444665Y319401D01*
X439335Y319401D01*
X434410Y321441D01*
X430641Y325210D01*
X430003Y326750D01*
X429965Y326811D01*
X429936Y326876D01*
X429901Y326915D01*
X429874Y326959D01*
X429818Y327005D01*
X429770Y327058D01*
X429724Y327083D01*
X429684Y327116D01*
X429617Y327142D01*
X429554Y327176D01*
X429503Y327185D01*
X429455Y327204D01*
X429383Y327207D01*
X429312Y327220D01*
X429261Y327212D01*
X429209Y327214D01*
X429140Y327195D01*
X429069Y327184D01*
X429023Y327160D01*
X428973Y327146D01*
X428914Y327105D01*
X428850Y327073D01*
X428813Y327035D01*
X428771Y327006D01*
X428728Y326948D01*
X428678Y326897D01*
X428643Y326834D01*
X428624Y326808D01*
X428617Y326786D01*
X428597Y326750D01*
X427959Y325210D01*
X424190Y321441D01*
X419265Y319401D01*
X413935Y319401D01*
X409010Y321441D01*
X405241Y325210D01*
X404603Y326750D01*
X404565Y326811D01*
X404536Y326876D01*
X404501Y326915D01*
X404474Y326959D01*
X404418Y327005D01*
X404370Y327058D01*
X404324Y327083D01*
X404284Y327116D01*
X404217Y327142D01*
X404154Y327176D01*
X404103Y327185D01*
X404055Y327204D01*
X403983Y327207D01*
X403912Y327220D01*
X403861Y327212D01*
X403809Y327214D01*
X403740Y327195D01*
X403669Y327184D01*
X403623Y327160D01*
X403573Y327146D01*
X403514Y327105D01*
X403450Y327073D01*
X403413Y327035D01*
X403371Y327006D01*
X403328Y326948D01*
X403278Y326897D01*
X403243Y326834D01*
X403224Y326808D01*
X403217Y326786D01*
X403197Y326750D01*
X402559Y325210D01*
X398790Y321441D01*
X393865Y319401D01*
X388535Y319401D01*
X383610Y321441D01*
X379841Y325210D01*
X379203Y326750D01*
X379165Y326811D01*
X379136Y326876D01*
X379101Y326915D01*
X379074Y326959D01*
X379018Y327005D01*
X378970Y327058D01*
X378924Y327083D01*
X378884Y327116D01*
X378817Y327142D01*
X378754Y327176D01*
X378703Y327185D01*
X378655Y327204D01*
X378583Y327207D01*
X378512Y327220D01*
X378461Y327212D01*
X378409Y327214D01*
X378340Y327195D01*
X378269Y327184D01*
X378223Y327160D01*
X378173Y327146D01*
X378114Y327105D01*
X378050Y327073D01*
X378013Y327035D01*
X377971Y327006D01*
X377928Y326948D01*
X377878Y326897D01*
X377843Y326834D01*
X377824Y326808D01*
X377817Y326786D01*
X377797Y326750D01*
X377159Y325210D01*
X373390Y321441D01*
X368465Y319401D01*
X363135Y319401D01*
X358210Y321441D01*
X354441Y325210D01*
X353803Y326750D01*
X353765Y326811D01*
X353736Y326876D01*
X353701Y326915D01*
X353674Y326959D01*
X353618Y327005D01*
X353570Y327058D01*
X353524Y327083D01*
X353484Y327116D01*
X353417Y327142D01*
X353354Y327176D01*
X353303Y327185D01*
X353255Y327204D01*
X353183Y327207D01*
X353112Y327220D01*
X353061Y327212D01*
X353009Y327214D01*
X352940Y327195D01*
X352869Y327184D01*
X352823Y327160D01*
X352773Y327146D01*
X352714Y327105D01*
X352650Y327073D01*
X352613Y327035D01*
X352571Y327006D01*
X352528Y326948D01*
X352478Y326897D01*
X352443Y326834D01*
X352424Y326808D01*
X352417Y326786D01*
X352397Y326750D01*
X351759Y325210D01*
X347990Y321441D01*
X343065Y319401D01*
X337735Y319401D01*
X332810Y321441D01*
X329041Y325210D01*
X328403Y326750D01*
X328365Y326811D01*
X328336Y326876D01*
X328301Y326915D01*
X328274Y326959D01*
X328218Y327005D01*
X328170Y327058D01*
X328124Y327083D01*
X328084Y327116D01*
X328017Y327142D01*
X327954Y327176D01*
X327903Y327185D01*
X327855Y327204D01*
X327783Y327207D01*
X327712Y327220D01*
X327661Y327212D01*
X327609Y327214D01*
X327540Y327195D01*
X327469Y327184D01*
X327423Y327160D01*
X327373Y327146D01*
X327314Y327105D01*
X327250Y327073D01*
X327213Y327035D01*
X327171Y327006D01*
X327128Y326948D01*
X327078Y326897D01*
X327043Y326834D01*
X327024Y326808D01*
X327017Y326786D01*
X326997Y326750D01*
X326359Y325210D01*
X322590Y321441D01*
X317665Y319401D01*
X312335Y319401D01*
X307410Y321441D01*
X303641Y325210D01*
X303003Y326750D01*
X302965Y326811D01*
X302936Y326876D01*
X302901Y326915D01*
X302874Y326959D01*
X302818Y327005D01*
X302770Y327058D01*
X302724Y327083D01*
X302684Y327116D01*
X302617Y327142D01*
X302554Y327176D01*
X302503Y327185D01*
X302455Y327204D01*
X302383Y327207D01*
X302312Y327220D01*
X302261Y327212D01*
X302209Y327214D01*
X302140Y327195D01*
X302069Y327184D01*
X302023Y327160D01*
X301973Y327146D01*
X301914Y327105D01*
X301850Y327073D01*
X301813Y327035D01*
X301771Y327006D01*
X301728Y326948D01*
X301678Y326897D01*
X301643Y326834D01*
X301624Y326808D01*
X301617Y326786D01*
X301597Y326750D01*
X300959Y325210D01*
X297190Y321441D01*
X292265Y319401D01*
X286935Y319401D01*
X282010Y321441D01*
X278241Y325210D01*
X277603Y326750D01*
X277565Y326811D01*
X277536Y326876D01*
X277501Y326915D01*
X277474Y326959D01*
X277418Y327005D01*
X277370Y327058D01*
X277324Y327083D01*
X277284Y327116D01*
X277217Y327142D01*
X277154Y327176D01*
X277103Y327185D01*
X277055Y327204D01*
X276983Y327207D01*
X276912Y327220D01*
X276861Y327212D01*
X276809Y327214D01*
X276740Y327195D01*
X276669Y327184D01*
X276623Y327160D01*
X276573Y327146D01*
X276514Y327105D01*
X276450Y327073D01*
X276413Y327035D01*
X276371Y327006D01*
X276328Y326948D01*
X276278Y326897D01*
X276243Y326834D01*
X276224Y326808D01*
X276217Y326786D01*
X276197Y326750D01*
X275559Y325210D01*
X271790Y321441D01*
X266865Y319401D01*
X261535Y319401D01*
X256610Y321441D01*
X252841Y325210D01*
X252203Y326750D01*
X252165Y326811D01*
X252136Y326876D01*
X252101Y326915D01*
X252074Y326959D01*
X252018Y327005D01*
X251970Y327058D01*
X251924Y327083D01*
X251884Y327116D01*
X251817Y327142D01*
X251754Y327176D01*
X251703Y327185D01*
X251655Y327204D01*
X251583Y327207D01*
X251512Y327220D01*
X251461Y327212D01*
X251409Y327214D01*
X251340Y327195D01*
X251269Y327184D01*
X251223Y327160D01*
X251173Y327146D01*
X251114Y327105D01*
X251050Y327073D01*
X251013Y327035D01*
X250971Y327006D01*
X250928Y326948D01*
X250878Y326897D01*
X250843Y326834D01*
X250824Y326808D01*
X250817Y326786D01*
X250797Y326750D01*
X250159Y325210D01*
X246390Y321441D01*
X241465Y319401D01*
X236135Y319401D01*
X231210Y321441D01*
X227441Y325210D01*
X226803Y326750D01*
X226765Y326811D01*
X226736Y326876D01*
X226701Y326915D01*
X226674Y326959D01*
X226618Y327005D01*
X226570Y327058D01*
X226524Y327083D01*
X226484Y327116D01*
X226417Y327142D01*
X226354Y327176D01*
X226303Y327185D01*
X226255Y327204D01*
X226183Y327207D01*
X226112Y327220D01*
X226061Y327212D01*
X226009Y327214D01*
X225940Y327195D01*
X225869Y327184D01*
X225823Y327160D01*
X225773Y327146D01*
X225714Y327105D01*
X225650Y327073D01*
X225613Y327035D01*
X225571Y327006D01*
X225528Y326948D01*
X225478Y326897D01*
X225443Y326834D01*
X225424Y326808D01*
X225417Y326786D01*
X225397Y326750D01*
X224759Y325210D01*
X220990Y321441D01*
X216065Y319401D01*
X210735Y319401D01*
X205810Y321441D01*
X202041Y325210D01*
X200615Y328653D01*
X200562Y328739D01*
X200513Y328829D01*
X200497Y328844D01*
X200485Y328862D01*
X200407Y328927D01*
X200333Y328996D01*
X200313Y329005D01*
X200296Y329019D01*
X200201Y329056D01*
X200109Y329097D01*
X200087Y329100D01*
X200066Y329107D01*
X199965Y329112D01*
X199864Y329122D01*
X199843Y329117D01*
X199820Y329118D01*
X199723Y329090D01*
X199624Y329067D01*
X199605Y329056D01*
X199584Y329049D01*
X199501Y328992D01*
X199415Y328939D01*
X199400Y328922D01*
X199382Y328909D01*
X199322Y328828D01*
X199257Y328750D01*
X199245Y328725D01*
X199235Y328712D01*
X199225Y328681D01*
X199188Y328597D01*
X199064Y328217D01*
X198211Y326543D01*
X197106Y325022D01*
X195778Y323694D01*
X194257Y322589D01*
X192583Y321736D01*
X190796Y321155D01*
X189523Y320954D01*
X189523Y332038D01*
X189520Y332058D01*
X189522Y332077D01*
X189500Y332179D01*
X189483Y332281D01*
X189474Y332298D01*
X189470Y332318D01*
X189417Y332407D01*
X189368Y332498D01*
X189354Y332512D01*
X189344Y332529D01*
X189265Y332596D01*
X189190Y332667D01*
X189172Y332676D01*
X189157Y332689D01*
X189061Y332727D01*
X188967Y332771D01*
X188947Y332773D01*
X188929Y332781D01*
X188762Y332799D01*
X187238Y332799D01*
X187218Y332796D01*
X187199Y332798D01*
X187097Y332776D01*
X186995Y332759D01*
X186978Y332750D01*
X186958Y332746D01*
X186869Y332693D01*
X186778Y332644D01*
X186764Y332630D01*
X186747Y332620D01*
X186680Y332541D01*
X186609Y332466D01*
X186600Y332448D01*
X186587Y332433D01*
X186548Y332337D01*
X186505Y332243D01*
X186503Y332223D01*
X186495Y332205D01*
X186477Y332038D01*
X186477Y320954D01*
X185204Y321155D01*
X183417Y321736D01*
X181743Y322589D01*
X180222Y323694D01*
X178894Y325022D01*
X177789Y326543D01*
X176936Y328217D01*
X176812Y328597D01*
X176766Y328687D01*
X176725Y328780D01*
X176710Y328796D01*
X176700Y328816D01*
X176627Y328886D01*
X176558Y328961D01*
X176539Y328972D01*
X176523Y328987D01*
X176432Y329031D01*
X176343Y329080D01*
X176321Y329084D01*
X176301Y329093D01*
X176201Y329105D01*
X176101Y329123D01*
X176079Y329120D01*
X176057Y329123D01*
X175958Y329102D01*
X175857Y329087D01*
X175838Y329077D01*
X175816Y329073D01*
X175729Y329022D01*
X175638Y328976D01*
X175623Y328960D01*
X175604Y328949D01*
X175537Y328873D01*
X175466Y328800D01*
X175453Y328776D01*
X175442Y328764D01*
X175429Y328734D01*
X175385Y328653D01*
X173959Y325210D01*
X170190Y321441D01*
X165265Y319401D01*
X159935Y319401D01*
X155010Y321441D01*
X151241Y325210D01*
X150603Y326750D01*
X150565Y326811D01*
X150536Y326876D01*
X150501Y326915D01*
X150474Y326959D01*
X150418Y327005D01*
X150370Y327058D01*
X150324Y327083D01*
X150284Y327116D01*
X150217Y327142D01*
X150154Y327176D01*
X150103Y327185D01*
X150055Y327204D01*
X149983Y327207D01*
X149912Y327220D01*
X149861Y327212D01*
X149809Y327214D01*
X149740Y327195D01*
X149669Y327184D01*
X149623Y327160D01*
X149573Y327146D01*
X149514Y327105D01*
X149450Y327073D01*
X149413Y327035D01*
X149371Y327006D01*
X149328Y326948D01*
X149278Y326897D01*
X149243Y326834D01*
X149224Y326808D01*
X149217Y326786D01*
X149197Y326750D01*
X148559Y325210D01*
X144790Y321441D01*
X139865Y319401D01*
X134535Y319401D01*
X129610Y321441D01*
X125841Y325210D01*
X125203Y326750D01*
X125165Y326811D01*
X125136Y326876D01*
X125101Y326915D01*
X125074Y326959D01*
X125018Y327005D01*
X124970Y327058D01*
X124924Y327083D01*
X124884Y327116D01*
X124817Y327142D01*
X124754Y327176D01*
X124703Y327185D01*
X124655Y327204D01*
X124583Y327207D01*
X124512Y327220D01*
X124461Y327212D01*
X124409Y327214D01*
X124340Y327195D01*
X124269Y327184D01*
X124223Y327160D01*
X124173Y327146D01*
X124114Y327105D01*
X124050Y327073D01*
X124013Y327035D01*
X123971Y327006D01*
X123928Y326948D01*
X123878Y326897D01*
X123843Y326834D01*
X123824Y326808D01*
X123817Y326786D01*
X123797Y326750D01*
X123159Y325210D01*
X119390Y321441D01*
X114465Y319401D01*
X109135Y319401D01*
G37*
%LPD*%
%LPC*%
G36*
X350471Y381317D02*
X350471Y381317D01*
X343217Y388571D01*
X343217Y398829D01*
X350471Y406083D01*
X360729Y406083D01*
X367762Y399050D01*
X367778Y399038D01*
X367790Y399023D01*
X367878Y398967D01*
X367961Y398907D01*
X367980Y398901D01*
X367997Y398890D01*
X368098Y398865D01*
X368197Y398834D01*
X368216Y398835D01*
X368236Y398830D01*
X368339Y398838D01*
X368442Y398841D01*
X368461Y398847D01*
X368481Y398849D01*
X368576Y398889D01*
X368673Y398925D01*
X368689Y398938D01*
X368707Y398945D01*
X368838Y399050D01*
X375871Y406083D01*
X386129Y406083D01*
X393162Y399050D01*
X393178Y399038D01*
X393190Y399023D01*
X393278Y398967D01*
X393361Y398907D01*
X393380Y398901D01*
X393397Y398890D01*
X393498Y398865D01*
X393597Y398834D01*
X393616Y398835D01*
X393636Y398830D01*
X393739Y398838D01*
X393842Y398841D01*
X393861Y398847D01*
X393881Y398849D01*
X393976Y398889D01*
X394073Y398925D01*
X394089Y398938D01*
X394107Y398945D01*
X394238Y399050D01*
X401271Y406083D01*
X411529Y406083D01*
X418562Y399050D01*
X418578Y399038D01*
X418590Y399023D01*
X418678Y398967D01*
X418761Y398907D01*
X418780Y398901D01*
X418797Y398890D01*
X418898Y398865D01*
X418997Y398834D01*
X419016Y398835D01*
X419036Y398830D01*
X419139Y398838D01*
X419242Y398841D01*
X419261Y398847D01*
X419281Y398849D01*
X419376Y398889D01*
X419473Y398925D01*
X419489Y398938D01*
X419507Y398945D01*
X419638Y399050D01*
X426671Y406083D01*
X436929Y406083D01*
X443962Y399050D01*
X443978Y399038D01*
X443990Y399023D01*
X444078Y398967D01*
X444161Y398907D01*
X444180Y398901D01*
X444197Y398890D01*
X444298Y398865D01*
X444397Y398834D01*
X444416Y398835D01*
X444436Y398830D01*
X444539Y398838D01*
X444642Y398841D01*
X444661Y398847D01*
X444681Y398849D01*
X444776Y398889D01*
X444873Y398925D01*
X444889Y398938D01*
X444907Y398945D01*
X445038Y399050D01*
X452071Y406083D01*
X462329Y406083D01*
X469362Y399050D01*
X469378Y399038D01*
X469390Y399023D01*
X469478Y398967D01*
X469561Y398907D01*
X469580Y398901D01*
X469597Y398890D01*
X469698Y398865D01*
X469797Y398834D01*
X469816Y398835D01*
X469836Y398830D01*
X469939Y398838D01*
X470042Y398841D01*
X470061Y398847D01*
X470081Y398849D01*
X470176Y398889D01*
X470273Y398925D01*
X470289Y398938D01*
X470307Y398945D01*
X470438Y399050D01*
X477471Y406083D01*
X487729Y406083D01*
X494762Y399050D01*
X494778Y399038D01*
X494790Y399023D01*
X494878Y398967D01*
X494961Y398907D01*
X494980Y398901D01*
X494997Y398890D01*
X495098Y398865D01*
X495197Y398834D01*
X495216Y398835D01*
X495236Y398830D01*
X495339Y398838D01*
X495442Y398841D01*
X495461Y398847D01*
X495481Y398849D01*
X495576Y398889D01*
X495673Y398925D01*
X495689Y398938D01*
X495707Y398945D01*
X495838Y399050D01*
X502871Y406083D01*
X513129Y406083D01*
X520162Y399050D01*
X520178Y399038D01*
X520190Y399023D01*
X520278Y398967D01*
X520361Y398907D01*
X520380Y398901D01*
X520397Y398890D01*
X520498Y398865D01*
X520597Y398834D01*
X520616Y398835D01*
X520636Y398830D01*
X520739Y398838D01*
X520842Y398841D01*
X520861Y398847D01*
X520881Y398849D01*
X520976Y398889D01*
X521073Y398925D01*
X521089Y398938D01*
X521107Y398945D01*
X521238Y399050D01*
X528271Y406083D01*
X538529Y406083D01*
X545783Y398829D01*
X545783Y388571D01*
X538529Y381317D01*
X528271Y381317D01*
X521238Y388350D01*
X521222Y388362D01*
X521210Y388377D01*
X521122Y388433D01*
X521039Y388493D01*
X521020Y388499D01*
X521003Y388510D01*
X520902Y388535D01*
X520803Y388566D01*
X520784Y388565D01*
X520764Y388570D01*
X520661Y388562D01*
X520558Y388559D01*
X520539Y388553D01*
X520519Y388551D01*
X520424Y388511D01*
X520327Y388475D01*
X520311Y388462D01*
X520293Y388455D01*
X520162Y388350D01*
X513129Y381317D01*
X502871Y381317D01*
X495838Y388350D01*
X495822Y388362D01*
X495810Y388377D01*
X495722Y388433D01*
X495639Y388493D01*
X495620Y388499D01*
X495603Y388510D01*
X495502Y388535D01*
X495403Y388566D01*
X495384Y388565D01*
X495364Y388570D01*
X495261Y388562D01*
X495158Y388559D01*
X495139Y388553D01*
X495119Y388551D01*
X495024Y388511D01*
X494927Y388475D01*
X494911Y388462D01*
X494893Y388455D01*
X494762Y388350D01*
X487729Y381317D01*
X477471Y381317D01*
X470438Y388350D01*
X470422Y388362D01*
X470410Y388377D01*
X470322Y388433D01*
X470239Y388493D01*
X470220Y388499D01*
X470203Y388510D01*
X470102Y388535D01*
X470003Y388566D01*
X469984Y388565D01*
X469964Y388570D01*
X469861Y388562D01*
X469758Y388559D01*
X469739Y388553D01*
X469719Y388551D01*
X469624Y388511D01*
X469527Y388475D01*
X469511Y388462D01*
X469493Y388455D01*
X469362Y388350D01*
X462329Y381317D01*
X452071Y381317D01*
X445038Y388350D01*
X445022Y388362D01*
X445010Y388377D01*
X444922Y388433D01*
X444839Y388493D01*
X444820Y388499D01*
X444803Y388510D01*
X444702Y388535D01*
X444603Y388566D01*
X444584Y388565D01*
X444564Y388570D01*
X444461Y388562D01*
X444358Y388559D01*
X444339Y388553D01*
X444319Y388551D01*
X444224Y388511D01*
X444127Y388475D01*
X444111Y388462D01*
X444093Y388455D01*
X443962Y388350D01*
X436929Y381317D01*
X426671Y381317D01*
X419638Y388350D01*
X419622Y388362D01*
X419610Y388377D01*
X419522Y388433D01*
X419439Y388493D01*
X419420Y388499D01*
X419403Y388510D01*
X419302Y388535D01*
X419203Y388566D01*
X419184Y388565D01*
X419164Y388570D01*
X419061Y388562D01*
X418958Y388559D01*
X418939Y388553D01*
X418919Y388551D01*
X418824Y388511D01*
X418727Y388475D01*
X418711Y388462D01*
X418693Y388455D01*
X418562Y388350D01*
X411529Y381317D01*
X401271Y381317D01*
X394238Y388350D01*
X394222Y388362D01*
X394210Y388377D01*
X394122Y388433D01*
X394039Y388493D01*
X394020Y388499D01*
X394003Y388510D01*
X393902Y388535D01*
X393803Y388566D01*
X393784Y388565D01*
X393764Y388570D01*
X393661Y388562D01*
X393558Y388559D01*
X393539Y388553D01*
X393519Y388551D01*
X393424Y388511D01*
X393327Y388475D01*
X393311Y388462D01*
X393293Y388455D01*
X393162Y388350D01*
X386129Y381317D01*
X375871Y381317D01*
X368838Y388350D01*
X368822Y388362D01*
X368810Y388377D01*
X368722Y388433D01*
X368639Y388493D01*
X368620Y388499D01*
X368603Y388510D01*
X368502Y388535D01*
X368403Y388566D01*
X368384Y388565D01*
X368364Y388570D01*
X368261Y388562D01*
X368158Y388559D01*
X368139Y388553D01*
X368119Y388551D01*
X368024Y388511D01*
X367927Y388475D01*
X367911Y388462D01*
X367893Y388455D01*
X367762Y388350D01*
X360729Y381317D01*
X350471Y381317D01*
G37*
%LPD*%
%LPC*%
G36*
X579071Y863917D02*
X579071Y863917D01*
X571817Y871171D01*
X571817Y881429D01*
X579071Y888683D01*
X589329Y888683D01*
X596362Y881650D01*
X596378Y881638D01*
X596390Y881623D01*
X596478Y881567D01*
X596561Y881507D01*
X596580Y881501D01*
X596597Y881490D01*
X596698Y881465D01*
X596797Y881434D01*
X596816Y881435D01*
X596836Y881430D01*
X596939Y881438D01*
X597042Y881441D01*
X597061Y881447D01*
X597081Y881449D01*
X597176Y881489D01*
X597273Y881525D01*
X597289Y881538D01*
X597307Y881545D01*
X597438Y881650D01*
X604471Y888683D01*
X614729Y888683D01*
X621762Y881650D01*
X621778Y881638D01*
X621790Y881623D01*
X621878Y881567D01*
X621961Y881507D01*
X621980Y881501D01*
X621997Y881490D01*
X622098Y881465D01*
X622197Y881434D01*
X622216Y881435D01*
X622236Y881430D01*
X622339Y881438D01*
X622442Y881441D01*
X622461Y881447D01*
X622481Y881449D01*
X622576Y881489D01*
X622673Y881525D01*
X622689Y881538D01*
X622707Y881545D01*
X622838Y881650D01*
X629871Y888683D01*
X640129Y888683D01*
X647162Y881650D01*
X647178Y881638D01*
X647190Y881623D01*
X647278Y881567D01*
X647361Y881507D01*
X647380Y881501D01*
X647397Y881490D01*
X647498Y881465D01*
X647597Y881434D01*
X647616Y881435D01*
X647636Y881430D01*
X647739Y881438D01*
X647842Y881441D01*
X647861Y881447D01*
X647881Y881449D01*
X647976Y881489D01*
X648073Y881525D01*
X648089Y881538D01*
X648107Y881545D01*
X648238Y881650D01*
X655271Y888683D01*
X665529Y888683D01*
X672562Y881650D01*
X672578Y881638D01*
X672590Y881623D01*
X672678Y881567D01*
X672761Y881507D01*
X672780Y881501D01*
X672797Y881490D01*
X672898Y881465D01*
X672997Y881434D01*
X673016Y881435D01*
X673036Y881430D01*
X673139Y881438D01*
X673242Y881441D01*
X673261Y881447D01*
X673281Y881449D01*
X673376Y881489D01*
X673473Y881525D01*
X673489Y881538D01*
X673507Y881545D01*
X673638Y881650D01*
X680671Y888683D01*
X690929Y888683D01*
X697962Y881650D01*
X697978Y881638D01*
X697990Y881623D01*
X698078Y881567D01*
X698161Y881507D01*
X698180Y881501D01*
X698197Y881490D01*
X698298Y881465D01*
X698397Y881434D01*
X698416Y881435D01*
X698436Y881430D01*
X698539Y881438D01*
X698642Y881441D01*
X698661Y881447D01*
X698681Y881449D01*
X698776Y881489D01*
X698873Y881525D01*
X698889Y881538D01*
X698907Y881545D01*
X699038Y881650D01*
X706071Y888683D01*
X716329Y888683D01*
X723583Y881429D01*
X723583Y871171D01*
X716329Y863917D01*
X706071Y863917D01*
X699038Y870950D01*
X699022Y870962D01*
X699010Y870977D01*
X698922Y871033D01*
X698839Y871093D01*
X698820Y871099D01*
X698803Y871110D01*
X698702Y871135D01*
X698603Y871166D01*
X698584Y871165D01*
X698564Y871170D01*
X698461Y871162D01*
X698358Y871159D01*
X698339Y871153D01*
X698319Y871151D01*
X698224Y871111D01*
X698127Y871075D01*
X698111Y871062D01*
X698093Y871055D01*
X697962Y870950D01*
X690929Y863917D01*
X680671Y863917D01*
X673638Y870950D01*
X673622Y870962D01*
X673610Y870977D01*
X673522Y871033D01*
X673439Y871093D01*
X673420Y871099D01*
X673403Y871110D01*
X673302Y871135D01*
X673203Y871166D01*
X673184Y871165D01*
X673164Y871170D01*
X673061Y871162D01*
X672958Y871159D01*
X672939Y871153D01*
X672919Y871151D01*
X672824Y871111D01*
X672727Y871075D01*
X672711Y871062D01*
X672693Y871055D01*
X672562Y870950D01*
X665529Y863917D01*
X655271Y863917D01*
X648238Y870950D01*
X648222Y870962D01*
X648210Y870977D01*
X648122Y871033D01*
X648039Y871093D01*
X648020Y871099D01*
X648003Y871110D01*
X647902Y871135D01*
X647803Y871166D01*
X647784Y871165D01*
X647764Y871170D01*
X647661Y871162D01*
X647558Y871159D01*
X647539Y871153D01*
X647519Y871151D01*
X647424Y871111D01*
X647327Y871075D01*
X647311Y871062D01*
X647293Y871055D01*
X647162Y870950D01*
X640129Y863917D01*
X629871Y863917D01*
X622838Y870950D01*
X622822Y870962D01*
X622810Y870977D01*
X622722Y871033D01*
X622639Y871093D01*
X622620Y871099D01*
X622603Y871110D01*
X622502Y871135D01*
X622403Y871166D01*
X622384Y871165D01*
X622364Y871170D01*
X622261Y871162D01*
X622158Y871159D01*
X622139Y871153D01*
X622119Y871151D01*
X622024Y871111D01*
X621927Y871075D01*
X621911Y871062D01*
X621893Y871055D01*
X621762Y870950D01*
X614729Y863917D01*
X604471Y863917D01*
X597438Y870950D01*
X597422Y870962D01*
X597410Y870977D01*
X597322Y871033D01*
X597239Y871093D01*
X597220Y871099D01*
X597203Y871110D01*
X597102Y871135D01*
X597003Y871166D01*
X596984Y871165D01*
X596964Y871170D01*
X596861Y871162D01*
X596758Y871159D01*
X596739Y871153D01*
X596719Y871151D01*
X596624Y871111D01*
X596527Y871075D01*
X596511Y871062D01*
X596493Y871055D01*
X596362Y870950D01*
X589329Y863917D01*
X579071Y863917D01*
G37*
%LPD*%
%LPC*%
G36*
X350471Y863917D02*
X350471Y863917D01*
X343217Y871171D01*
X343217Y881429D01*
X350471Y888683D01*
X360729Y888683D01*
X367762Y881650D01*
X367778Y881638D01*
X367790Y881623D01*
X367878Y881567D01*
X367961Y881507D01*
X367980Y881501D01*
X367997Y881490D01*
X368098Y881465D01*
X368197Y881434D01*
X368216Y881435D01*
X368236Y881430D01*
X368339Y881438D01*
X368442Y881441D01*
X368461Y881447D01*
X368481Y881449D01*
X368576Y881489D01*
X368673Y881525D01*
X368689Y881538D01*
X368707Y881545D01*
X368838Y881650D01*
X375871Y888683D01*
X386129Y888683D01*
X393162Y881650D01*
X393178Y881638D01*
X393190Y881623D01*
X393278Y881567D01*
X393361Y881507D01*
X393380Y881501D01*
X393397Y881490D01*
X393498Y881465D01*
X393597Y881434D01*
X393616Y881435D01*
X393636Y881430D01*
X393739Y881438D01*
X393842Y881441D01*
X393861Y881447D01*
X393881Y881449D01*
X393976Y881489D01*
X394073Y881525D01*
X394089Y881538D01*
X394107Y881545D01*
X394238Y881650D01*
X401271Y888683D01*
X411529Y888683D01*
X418562Y881650D01*
X418578Y881638D01*
X418590Y881623D01*
X418678Y881567D01*
X418761Y881507D01*
X418780Y881501D01*
X418797Y881490D01*
X418898Y881465D01*
X418997Y881434D01*
X419016Y881435D01*
X419036Y881430D01*
X419139Y881438D01*
X419242Y881441D01*
X419261Y881447D01*
X419281Y881449D01*
X419376Y881489D01*
X419473Y881525D01*
X419489Y881538D01*
X419507Y881545D01*
X419638Y881650D01*
X426671Y888683D01*
X436929Y888683D01*
X443962Y881650D01*
X443978Y881638D01*
X443990Y881623D01*
X444078Y881567D01*
X444161Y881507D01*
X444180Y881501D01*
X444197Y881490D01*
X444298Y881465D01*
X444397Y881434D01*
X444416Y881435D01*
X444436Y881430D01*
X444539Y881438D01*
X444642Y881441D01*
X444661Y881447D01*
X444681Y881449D01*
X444776Y881489D01*
X444873Y881525D01*
X444889Y881538D01*
X444907Y881545D01*
X445038Y881650D01*
X452071Y888683D01*
X462329Y888683D01*
X469362Y881650D01*
X469378Y881638D01*
X469390Y881623D01*
X469478Y881567D01*
X469561Y881507D01*
X469580Y881501D01*
X469597Y881490D01*
X469698Y881465D01*
X469797Y881434D01*
X469816Y881435D01*
X469836Y881430D01*
X469939Y881438D01*
X470042Y881441D01*
X470061Y881447D01*
X470081Y881449D01*
X470176Y881489D01*
X470273Y881525D01*
X470289Y881538D01*
X470307Y881545D01*
X470438Y881650D01*
X477471Y888683D01*
X487729Y888683D01*
X494983Y881429D01*
X494983Y871171D01*
X487729Y863917D01*
X477471Y863917D01*
X470438Y870950D01*
X470422Y870962D01*
X470410Y870977D01*
X470322Y871033D01*
X470239Y871093D01*
X470220Y871099D01*
X470203Y871110D01*
X470102Y871135D01*
X470003Y871166D01*
X469984Y871165D01*
X469964Y871170D01*
X469861Y871162D01*
X469758Y871159D01*
X469739Y871153D01*
X469719Y871151D01*
X469624Y871111D01*
X469527Y871075D01*
X469511Y871062D01*
X469493Y871055D01*
X469362Y870950D01*
X462329Y863917D01*
X452071Y863917D01*
X445038Y870950D01*
X445022Y870962D01*
X445010Y870977D01*
X444922Y871033D01*
X444839Y871093D01*
X444820Y871099D01*
X444803Y871110D01*
X444702Y871135D01*
X444603Y871166D01*
X444584Y871165D01*
X444564Y871170D01*
X444461Y871162D01*
X444358Y871159D01*
X444339Y871153D01*
X444319Y871151D01*
X444224Y871111D01*
X444127Y871075D01*
X444111Y871062D01*
X444093Y871055D01*
X443962Y870950D01*
X436929Y863917D01*
X426671Y863917D01*
X419638Y870950D01*
X419622Y870962D01*
X419610Y870977D01*
X419522Y871033D01*
X419439Y871093D01*
X419420Y871099D01*
X419403Y871110D01*
X419302Y871135D01*
X419203Y871166D01*
X419184Y871165D01*
X419164Y871170D01*
X419061Y871162D01*
X418958Y871159D01*
X418939Y871153D01*
X418919Y871151D01*
X418824Y871111D01*
X418727Y871075D01*
X418711Y871062D01*
X418693Y871055D01*
X418562Y870950D01*
X411529Y863917D01*
X401271Y863917D01*
X394238Y870950D01*
X394222Y870962D01*
X394210Y870977D01*
X394122Y871033D01*
X394039Y871093D01*
X394020Y871099D01*
X394003Y871110D01*
X393902Y871135D01*
X393803Y871166D01*
X393784Y871165D01*
X393764Y871170D01*
X393661Y871162D01*
X393558Y871159D01*
X393539Y871153D01*
X393519Y871151D01*
X393424Y871111D01*
X393327Y871075D01*
X393311Y871062D01*
X393293Y871055D01*
X393162Y870950D01*
X386129Y863917D01*
X375871Y863917D01*
X368838Y870950D01*
X368822Y870962D01*
X368810Y870977D01*
X368722Y871033D01*
X368639Y871093D01*
X368620Y871099D01*
X368603Y871110D01*
X368502Y871135D01*
X368403Y871166D01*
X368384Y871165D01*
X368364Y871170D01*
X368261Y871162D01*
X368158Y871159D01*
X368139Y871153D01*
X368119Y871151D01*
X368024Y871111D01*
X367927Y871075D01*
X367911Y871062D01*
X367893Y871055D01*
X367762Y870950D01*
X360729Y863917D01*
X350471Y863917D01*
G37*
%LPD*%
%LPC*%
G36*
X568911Y381317D02*
X568911Y381317D01*
X561657Y388571D01*
X561657Y398829D01*
X568911Y406083D01*
X579169Y406083D01*
X586202Y399050D01*
X586218Y399038D01*
X586230Y399023D01*
X586318Y398967D01*
X586401Y398907D01*
X586420Y398901D01*
X586437Y398890D01*
X586538Y398865D01*
X586637Y398834D01*
X586656Y398835D01*
X586676Y398830D01*
X586779Y398838D01*
X586882Y398841D01*
X586901Y398847D01*
X586921Y398849D01*
X587016Y398889D01*
X587113Y398925D01*
X587129Y398938D01*
X587147Y398945D01*
X587278Y399050D01*
X594311Y406083D01*
X604569Y406083D01*
X611602Y399050D01*
X611618Y399038D01*
X611630Y399023D01*
X611718Y398967D01*
X611801Y398907D01*
X611820Y398901D01*
X611837Y398890D01*
X611938Y398865D01*
X612037Y398834D01*
X612056Y398835D01*
X612076Y398830D01*
X612179Y398838D01*
X612282Y398841D01*
X612301Y398847D01*
X612321Y398849D01*
X612416Y398889D01*
X612513Y398925D01*
X612529Y398938D01*
X612547Y398945D01*
X612678Y399050D01*
X619711Y406083D01*
X629969Y406083D01*
X637002Y399050D01*
X637018Y399038D01*
X637030Y399023D01*
X637118Y398967D01*
X637201Y398907D01*
X637220Y398901D01*
X637237Y398890D01*
X637338Y398865D01*
X637437Y398834D01*
X637456Y398835D01*
X637476Y398830D01*
X637579Y398838D01*
X637682Y398841D01*
X637701Y398847D01*
X637721Y398849D01*
X637816Y398889D01*
X637913Y398925D01*
X637929Y398938D01*
X637947Y398945D01*
X638078Y399050D01*
X645111Y406083D01*
X655369Y406083D01*
X662402Y399050D01*
X662418Y399038D01*
X662430Y399023D01*
X662518Y398967D01*
X662601Y398907D01*
X662620Y398901D01*
X662637Y398890D01*
X662738Y398865D01*
X662837Y398834D01*
X662856Y398835D01*
X662876Y398830D01*
X662979Y398838D01*
X663082Y398841D01*
X663101Y398847D01*
X663121Y398849D01*
X663216Y398889D01*
X663313Y398925D01*
X663329Y398938D01*
X663347Y398945D01*
X663478Y399050D01*
X670511Y406083D01*
X680769Y406083D01*
X687802Y399050D01*
X687818Y399038D01*
X687830Y399023D01*
X687918Y398967D01*
X688001Y398907D01*
X688020Y398901D01*
X688037Y398890D01*
X688138Y398865D01*
X688237Y398834D01*
X688256Y398835D01*
X688276Y398830D01*
X688379Y398838D01*
X688482Y398841D01*
X688501Y398847D01*
X688521Y398849D01*
X688616Y398889D01*
X688713Y398925D01*
X688729Y398938D01*
X688747Y398945D01*
X688878Y399050D01*
X695911Y406083D01*
X706169Y406083D01*
X713423Y398829D01*
X713423Y388571D01*
X706169Y381317D01*
X695911Y381317D01*
X688878Y388350D01*
X688862Y388362D01*
X688850Y388377D01*
X688762Y388433D01*
X688679Y388493D01*
X688660Y388499D01*
X688643Y388510D01*
X688542Y388535D01*
X688443Y388566D01*
X688424Y388565D01*
X688404Y388570D01*
X688301Y388562D01*
X688198Y388559D01*
X688179Y388553D01*
X688159Y388551D01*
X688064Y388511D01*
X687967Y388475D01*
X687951Y388462D01*
X687933Y388455D01*
X687802Y388350D01*
X680769Y381317D01*
X670511Y381317D01*
X663478Y388350D01*
X663462Y388362D01*
X663450Y388377D01*
X663362Y388433D01*
X663279Y388493D01*
X663260Y388499D01*
X663243Y388510D01*
X663142Y388535D01*
X663043Y388566D01*
X663024Y388565D01*
X663004Y388570D01*
X662901Y388562D01*
X662798Y388559D01*
X662779Y388553D01*
X662759Y388551D01*
X662664Y388511D01*
X662567Y388475D01*
X662551Y388462D01*
X662533Y388455D01*
X662402Y388350D01*
X655369Y381317D01*
X645111Y381317D01*
X638078Y388350D01*
X638062Y388362D01*
X638050Y388377D01*
X637962Y388433D01*
X637879Y388493D01*
X637860Y388499D01*
X637843Y388510D01*
X637742Y388535D01*
X637643Y388566D01*
X637624Y388565D01*
X637604Y388570D01*
X637501Y388562D01*
X637398Y388559D01*
X637379Y388553D01*
X637359Y388551D01*
X637264Y388511D01*
X637167Y388475D01*
X637151Y388462D01*
X637133Y388455D01*
X637002Y388350D01*
X629969Y381317D01*
X619711Y381317D01*
X612678Y388350D01*
X612662Y388362D01*
X612650Y388377D01*
X612562Y388433D01*
X612479Y388493D01*
X612460Y388499D01*
X612443Y388510D01*
X612342Y388535D01*
X612243Y388566D01*
X612224Y388565D01*
X612204Y388570D01*
X612101Y388562D01*
X611998Y388559D01*
X611979Y388553D01*
X611959Y388551D01*
X611864Y388511D01*
X611767Y388475D01*
X611751Y388462D01*
X611733Y388455D01*
X611602Y388350D01*
X604569Y381317D01*
X594311Y381317D01*
X587278Y388350D01*
X587262Y388362D01*
X587250Y388377D01*
X587162Y388433D01*
X587079Y388493D01*
X587060Y388499D01*
X587043Y388510D01*
X586942Y388535D01*
X586843Y388566D01*
X586824Y388565D01*
X586804Y388570D01*
X586701Y388562D01*
X586598Y388559D01*
X586579Y388553D01*
X586559Y388551D01*
X586464Y388511D01*
X586367Y388475D01*
X586351Y388462D01*
X586333Y388455D01*
X586202Y388350D01*
X579169Y381317D01*
X568911Y381317D01*
G37*
%LPD*%
%LPC*%
G36*
X746711Y381317D02*
X746711Y381317D01*
X739457Y388571D01*
X739457Y398829D01*
X746711Y406083D01*
X756969Y406083D01*
X764002Y399050D01*
X764018Y399038D01*
X764030Y399023D01*
X764118Y398967D01*
X764201Y398907D01*
X764220Y398901D01*
X764237Y398890D01*
X764338Y398865D01*
X764437Y398834D01*
X764456Y398835D01*
X764476Y398830D01*
X764579Y398838D01*
X764682Y398841D01*
X764701Y398847D01*
X764721Y398849D01*
X764816Y398889D01*
X764913Y398925D01*
X764929Y398938D01*
X764947Y398945D01*
X765078Y399050D01*
X772111Y406083D01*
X782369Y406083D01*
X789402Y399050D01*
X789418Y399038D01*
X789430Y399023D01*
X789518Y398967D01*
X789601Y398907D01*
X789620Y398901D01*
X789637Y398890D01*
X789738Y398865D01*
X789837Y398834D01*
X789856Y398835D01*
X789876Y398830D01*
X789979Y398838D01*
X790082Y398841D01*
X790101Y398847D01*
X790121Y398849D01*
X790216Y398889D01*
X790313Y398925D01*
X790329Y398938D01*
X790347Y398945D01*
X790478Y399050D01*
X797511Y406083D01*
X807769Y406083D01*
X815023Y398829D01*
X815023Y388571D01*
X807769Y381317D01*
X797511Y381317D01*
X790478Y388350D01*
X790462Y388362D01*
X790450Y388377D01*
X790362Y388433D01*
X790279Y388493D01*
X790260Y388499D01*
X790243Y388510D01*
X790142Y388535D01*
X790043Y388566D01*
X790024Y388565D01*
X790004Y388570D01*
X789901Y388562D01*
X789798Y388559D01*
X789779Y388553D01*
X789759Y388551D01*
X789664Y388511D01*
X789567Y388475D01*
X789551Y388462D01*
X789533Y388455D01*
X789402Y388350D01*
X782369Y381317D01*
X772111Y381317D01*
X765078Y388350D01*
X765062Y388362D01*
X765050Y388377D01*
X764962Y388433D01*
X764879Y388493D01*
X764860Y388499D01*
X764843Y388510D01*
X764742Y388535D01*
X764643Y388566D01*
X764624Y388565D01*
X764604Y388570D01*
X764501Y388562D01*
X764398Y388559D01*
X764379Y388553D01*
X764359Y388551D01*
X764264Y388511D01*
X764167Y388475D01*
X764151Y388462D01*
X764133Y388455D01*
X764002Y388350D01*
X756969Y381317D01*
X746711Y381317D01*
G37*
%LPD*%
%LPC*%
G36*
X194489Y442939D02*
X194489Y442939D01*
X187446Y445856D01*
X182056Y451246D01*
X179139Y458289D01*
X179139Y465911D01*
X182056Y472954D01*
X187446Y478344D01*
X194489Y481261D01*
X202111Y481261D01*
X209154Y478344D01*
X214544Y472954D01*
X217461Y465911D01*
X217461Y458289D01*
X214544Y451246D01*
X209154Y445856D01*
X202111Y442939D01*
X194489Y442939D01*
G37*
%LPD*%
%LPC*%
G36*
X906147Y314007D02*
X906147Y314007D01*
X901222Y316047D01*
X897453Y319816D01*
X895413Y324741D01*
X895413Y330071D01*
X897453Y334996D01*
X901222Y338765D01*
X906147Y340805D01*
X911477Y340805D01*
X916402Y338765D01*
X920171Y334996D01*
X922211Y330071D01*
X922211Y324741D01*
X920171Y319816D01*
X916402Y316047D01*
X911477Y314007D01*
X906147Y314007D01*
G37*
%LPD*%
%LPC*%
G36*
X841123Y314007D02*
X841123Y314007D01*
X836198Y316047D01*
X832429Y319816D01*
X830389Y324741D01*
X830389Y330071D01*
X832429Y334996D01*
X836198Y338765D01*
X841123Y340805D01*
X846453Y340805D01*
X851378Y338765D01*
X855147Y334996D01*
X857187Y330071D01*
X857187Y324741D01*
X855147Y319816D01*
X851378Y316047D01*
X846453Y314007D01*
X841123Y314007D01*
G37*
%LPD*%
%LPC*%
G36*
X906147Y90995D02*
X906147Y90995D01*
X901222Y93035D01*
X897453Y96804D01*
X895413Y101729D01*
X895413Y107059D01*
X897453Y111984D01*
X901222Y115753D01*
X906147Y117793D01*
X911477Y117793D01*
X916402Y115753D01*
X920171Y111984D01*
X922211Y107059D01*
X922211Y101729D01*
X920171Y96804D01*
X916402Y93035D01*
X911477Y90995D01*
X906147Y90995D01*
G37*
%LPD*%
%LPC*%
G36*
X906147Y136207D02*
X906147Y136207D01*
X901222Y138247D01*
X897453Y142016D01*
X895413Y146941D01*
X895413Y152271D01*
X897453Y157196D01*
X901222Y160965D01*
X906147Y163005D01*
X911477Y163005D01*
X916402Y160965D01*
X920171Y157196D01*
X922211Y152271D01*
X922211Y146941D01*
X920171Y142016D01*
X916402Y138247D01*
X911477Y136207D01*
X906147Y136207D01*
G37*
%LPD*%
%LPC*%
G36*
X841123Y136207D02*
X841123Y136207D01*
X836198Y138247D01*
X832429Y142016D01*
X830389Y146941D01*
X830389Y152271D01*
X832429Y157196D01*
X836198Y160965D01*
X841123Y163005D01*
X846453Y163005D01*
X851378Y160965D01*
X855147Y157196D01*
X857187Y152271D01*
X857187Y146941D01*
X855147Y142016D01*
X851378Y138247D01*
X846453Y136207D01*
X841123Y136207D01*
G37*
%LPD*%
%LPC*%
G36*
X906147Y179895D02*
X906147Y179895D01*
X901222Y181935D01*
X897453Y185704D01*
X895413Y190629D01*
X895413Y195959D01*
X897453Y200884D01*
X901222Y204653D01*
X906147Y206693D01*
X911477Y206693D01*
X916402Y204653D01*
X920171Y200884D01*
X922211Y195959D01*
X922211Y190629D01*
X920171Y185704D01*
X916402Y181935D01*
X911477Y179895D01*
X906147Y179895D01*
G37*
%LPD*%
%LPC*%
G36*
X841123Y225107D02*
X841123Y225107D01*
X836198Y227147D01*
X832429Y230916D01*
X830389Y235841D01*
X830389Y241171D01*
X832429Y246096D01*
X836198Y249865D01*
X841123Y251905D01*
X846453Y251905D01*
X851378Y249865D01*
X855147Y246096D01*
X857187Y241171D01*
X857187Y235841D01*
X855147Y230916D01*
X851378Y227147D01*
X846453Y225107D01*
X841123Y225107D01*
G37*
%LPD*%
%LPC*%
G36*
X906147Y268795D02*
X906147Y268795D01*
X901222Y270835D01*
X897453Y274604D01*
X895413Y279529D01*
X895413Y284859D01*
X897453Y289784D01*
X901222Y293553D01*
X906147Y295593D01*
X911477Y295593D01*
X916402Y293553D01*
X920171Y289784D01*
X922211Y284859D01*
X922211Y279529D01*
X920171Y274604D01*
X916402Y270835D01*
X911477Y268795D01*
X906147Y268795D01*
G37*
%LPD*%
%LPC*%
G36*
X906147Y225107D02*
X906147Y225107D01*
X901222Y227147D01*
X897453Y230916D01*
X895413Y235841D01*
X895413Y241171D01*
X897453Y246096D01*
X901222Y249865D01*
X906147Y251905D01*
X911477Y251905D01*
X916402Y249865D01*
X920171Y246096D01*
X922211Y241171D01*
X922211Y235841D01*
X920171Y230916D01*
X916402Y227147D01*
X911477Y225107D01*
X906147Y225107D01*
G37*
%LPD*%
%LPC*%
G36*
X16203Y699659D02*
X16203Y699659D01*
X13859Y702003D01*
X13859Y720397D01*
X16203Y722741D01*
X34597Y722741D01*
X36941Y720397D01*
X36941Y702003D01*
X34597Y699659D01*
X16203Y699659D01*
G37*
%LPD*%
%LPC*%
G36*
X528271Y863917D02*
X528271Y863917D01*
X521017Y871171D01*
X521017Y881429D01*
X528271Y888683D01*
X538529Y888683D01*
X545783Y881429D01*
X545783Y871171D01*
X538529Y863917D01*
X528271Y863917D01*
G37*
%LPD*%
%LPC*%
G36*
X23104Y674259D02*
X23104Y674259D01*
X18863Y676016D01*
X15616Y679263D01*
X13859Y683504D01*
X13859Y688096D01*
X15616Y692337D01*
X18863Y695584D01*
X23104Y697341D01*
X27696Y697341D01*
X31937Y695584D01*
X35184Y692337D01*
X36941Y688096D01*
X36941Y683504D01*
X35184Y679263D01*
X31937Y676016D01*
X27696Y674259D01*
X23104Y674259D01*
G37*
%LPD*%
%LPC*%
G36*
X23104Y648859D02*
X23104Y648859D01*
X18863Y650616D01*
X15616Y653863D01*
X13859Y658104D01*
X13859Y662696D01*
X15616Y666937D01*
X18863Y670184D01*
X23104Y671941D01*
X27696Y671941D01*
X31937Y670184D01*
X35184Y666937D01*
X36941Y662696D01*
X36941Y658104D01*
X35184Y653863D01*
X31937Y650616D01*
X27696Y648859D01*
X23104Y648859D01*
G37*
%LPD*%
%LPC*%
G36*
X74461Y334323D02*
X74461Y334323D01*
X74461Y342532D01*
X74634Y343179D01*
X74969Y343758D01*
X75442Y344231D01*
X76021Y344566D01*
X76668Y344739D01*
X84877Y344739D01*
X84877Y334323D01*
X74461Y334323D01*
G37*
%LPD*%
%LPC*%
G36*
X76668Y320861D02*
X76668Y320861D01*
X76021Y321034D01*
X75442Y321369D01*
X74969Y321842D01*
X74634Y322421D01*
X74461Y323068D01*
X74461Y331277D01*
X84877Y331277D01*
X84877Y320861D01*
X76668Y320861D01*
G37*
%LPD*%
%LPC*%
G36*
X845311Y194817D02*
X845311Y194817D01*
X845311Y205140D01*
X846584Y204939D01*
X848371Y204358D01*
X850045Y203505D01*
X851566Y202400D01*
X852894Y201072D01*
X853999Y199551D01*
X854852Y197877D01*
X855433Y196090D01*
X855634Y194817D01*
X845311Y194817D01*
G37*
%LPD*%
%LPC*%
G36*
X468923Y334323D02*
X468923Y334323D01*
X468923Y344646D01*
X470196Y344445D01*
X471983Y343864D01*
X473657Y343011D01*
X475178Y341906D01*
X476506Y340578D01*
X477611Y339057D01*
X478464Y337383D01*
X479045Y335596D01*
X479246Y334323D01*
X468923Y334323D01*
G37*
%LPD*%
%LPC*%
G36*
X845311Y283717D02*
X845311Y283717D01*
X845311Y294040D01*
X846584Y293839D01*
X848371Y293258D01*
X850045Y292405D01*
X851566Y291300D01*
X852894Y289972D01*
X853999Y288451D01*
X854852Y286777D01*
X855433Y284990D01*
X855634Y283717D01*
X845311Y283717D01*
G37*
%LPD*%
%LPC*%
G36*
X845311Y105917D02*
X845311Y105917D01*
X845311Y116240D01*
X846584Y116039D01*
X848371Y115458D01*
X850045Y114605D01*
X851566Y113500D01*
X852894Y112172D01*
X853999Y110651D01*
X854852Y108977D01*
X855433Y107190D01*
X855634Y105917D01*
X845311Y105917D01*
G37*
%LPD*%
%LPC*%
G36*
X468923Y331277D02*
X468923Y331277D01*
X479246Y331277D01*
X479045Y330004D01*
X478464Y328217D01*
X477611Y326543D01*
X476506Y325022D01*
X475178Y323694D01*
X473657Y322589D01*
X471983Y321736D01*
X470196Y321155D01*
X468923Y320954D01*
X468923Y331277D01*
G37*
%LPD*%
%LPC*%
G36*
X831942Y283717D02*
X831942Y283717D01*
X832143Y284990D01*
X832724Y286777D01*
X833577Y288451D01*
X834682Y289972D01*
X836010Y291300D01*
X837531Y292405D01*
X839205Y293258D01*
X840992Y293839D01*
X842265Y294040D01*
X842265Y283717D01*
X831942Y283717D01*
G37*
%LPD*%
%LPC*%
G36*
X845311Y280671D02*
X845311Y280671D01*
X855634Y280671D01*
X855433Y279398D01*
X854852Y277611D01*
X853999Y275937D01*
X852894Y274416D01*
X851566Y273088D01*
X850045Y271983D01*
X848371Y271130D01*
X846584Y270549D01*
X845311Y270348D01*
X845311Y280671D01*
G37*
%LPD*%
%LPC*%
G36*
X831942Y194817D02*
X831942Y194817D01*
X832143Y196090D01*
X832724Y197877D01*
X833577Y199551D01*
X834682Y201072D01*
X836010Y202400D01*
X837531Y203505D01*
X839205Y204358D01*
X840992Y204939D01*
X842265Y205140D01*
X842265Y194817D01*
X831942Y194817D01*
G37*
%LPD*%
%LPC*%
G36*
X845311Y191771D02*
X845311Y191771D01*
X855634Y191771D01*
X855433Y190498D01*
X854852Y188711D01*
X853999Y187037D01*
X852894Y185516D01*
X851566Y184188D01*
X850045Y183083D01*
X848371Y182230D01*
X846584Y181649D01*
X845311Y181448D01*
X845311Y191771D01*
G37*
%LPD*%
%LPC*%
G36*
X831942Y105917D02*
X831942Y105917D01*
X832143Y107190D01*
X832724Y108977D01*
X833577Y110651D01*
X834682Y112172D01*
X836010Y113500D01*
X837531Y114605D01*
X839205Y115458D01*
X840992Y116039D01*
X842265Y116240D01*
X842265Y105917D01*
X831942Y105917D01*
G37*
%LPD*%
%LPC*%
G36*
X845311Y102871D02*
X845311Y102871D01*
X855634Y102871D01*
X855433Y101598D01*
X854852Y99811D01*
X853999Y98137D01*
X852894Y96616D01*
X851566Y95288D01*
X850045Y94183D01*
X848371Y93330D01*
X846584Y92749D01*
X845311Y92548D01*
X845311Y102871D01*
G37*
%LPD*%
%LPC*%
G36*
X840992Y270549D02*
X840992Y270549D01*
X839205Y271130D01*
X837531Y271983D01*
X836010Y273088D01*
X834682Y274416D01*
X833577Y275937D01*
X832724Y277611D01*
X832143Y279398D01*
X831942Y280671D01*
X842265Y280671D01*
X842265Y270348D01*
X840992Y270549D01*
G37*
%LPD*%
%LPC*%
G36*
X840992Y181649D02*
X840992Y181649D01*
X839205Y182230D01*
X837531Y183083D01*
X836010Y184188D01*
X834682Y185516D01*
X833577Y187037D01*
X832724Y188711D01*
X832143Y190498D01*
X831942Y191771D01*
X842265Y191771D01*
X842265Y181448D01*
X840992Y181649D01*
G37*
%LPD*%
%LPC*%
G36*
X840992Y92749D02*
X840992Y92749D01*
X839205Y93330D01*
X837531Y94183D01*
X836010Y95288D01*
X834682Y96616D01*
X833577Y98137D01*
X832724Y99811D01*
X832143Y101598D01*
X831942Y102871D01*
X842265Y102871D01*
X842265Y92548D01*
X840992Y92749D01*
G37*
%LPD*%
%LPC*%
G36*
X560323Y877823D02*
X560323Y877823D01*
X560323Y887223D01*
X563324Y887223D01*
X569723Y880824D01*
X569723Y877823D01*
X560323Y877823D01*
G37*
%LPD*%
%LPC*%
G36*
X727963Y395223D02*
X727963Y395223D01*
X727963Y404623D01*
X730964Y404623D01*
X737363Y398224D01*
X737363Y395223D01*
X727963Y395223D01*
G37*
%LPD*%
%LPC*%
G36*
X547877Y877823D02*
X547877Y877823D01*
X547877Y880824D01*
X554276Y887223D01*
X557277Y887223D01*
X557277Y877823D01*
X547877Y877823D01*
G37*
%LPD*%
%LPC*%
G36*
X560323Y865377D02*
X560323Y865377D01*
X560323Y874777D01*
X569723Y874777D01*
X569723Y871776D01*
X563324Y865377D01*
X560323Y865377D01*
G37*
%LPD*%
%LPC*%
G36*
X715517Y395223D02*
X715517Y395223D01*
X715517Y398224D01*
X721916Y404623D01*
X724917Y404623D01*
X724917Y395223D01*
X715517Y395223D01*
G37*
%LPD*%
%LPC*%
G36*
X727963Y382777D02*
X727963Y382777D01*
X727963Y392177D01*
X737363Y392177D01*
X737363Y389176D01*
X730964Y382777D01*
X727963Y382777D01*
G37*
%LPD*%
%LPC*%
G36*
X554276Y865377D02*
X554276Y865377D01*
X547877Y871776D01*
X547877Y874777D01*
X557277Y874777D01*
X557277Y865377D01*
X554276Y865377D01*
G37*
%LPD*%
%LPC*%
G36*
X721916Y382777D02*
X721916Y382777D01*
X715517Y389176D01*
X715517Y392177D01*
X724917Y392177D01*
X724917Y382777D01*
X721916Y382777D01*
G37*
%LPD*%
%LPC*%
G36*
X26923Y636523D02*
X26923Y636523D01*
X26923Y644965D01*
X27761Y644833D01*
X29270Y644342D01*
X30683Y643622D01*
X31967Y642689D01*
X33089Y641567D01*
X34022Y640283D01*
X34742Y638870D01*
X35233Y637361D01*
X35365Y636523D01*
X26923Y636523D01*
G37*
%LPD*%
%LPC*%
G36*
X26923Y633477D02*
X26923Y633477D01*
X35365Y633477D01*
X35233Y632639D01*
X34742Y631130D01*
X34022Y629717D01*
X33089Y628433D01*
X31967Y627311D01*
X30683Y626378D01*
X29270Y625658D01*
X27761Y625167D01*
X26923Y625035D01*
X26923Y633477D01*
G37*
%LPD*%
%LPC*%
G36*
X15435Y636523D02*
X15435Y636523D01*
X15567Y637361D01*
X16058Y638870D01*
X16778Y640283D01*
X17711Y641567D01*
X18833Y642689D01*
X20117Y643622D01*
X21530Y644342D01*
X23039Y644833D01*
X23877Y644965D01*
X23877Y636523D01*
X15435Y636523D01*
G37*
%LPD*%
%LPC*%
G36*
X23039Y625167D02*
X23039Y625167D01*
X21530Y625658D01*
X20117Y626378D01*
X18833Y627311D01*
X17711Y628433D01*
X16778Y629717D01*
X16058Y631130D01*
X15567Y632639D01*
X15435Y633477D01*
X23877Y633477D01*
X23877Y625035D01*
X23039Y625167D01*
G37*
%LPD*%
%LPC*%
G36*
X726439Y393699D02*
X726439Y393699D01*
X726439Y393701D01*
X726441Y393701D01*
X726441Y393699D01*
X726439Y393699D01*
G37*
%LPD*%
%LPC*%
G36*
X843787Y282193D02*
X843787Y282193D01*
X843787Y282195D01*
X843789Y282195D01*
X843789Y282193D01*
X843787Y282193D01*
G37*
%LPD*%
%LPC*%
G36*
X25399Y634999D02*
X25399Y634999D01*
X25399Y635001D01*
X25401Y635001D01*
X25401Y634999D01*
X25399Y634999D01*
G37*
%LPD*%
%LPC*%
G36*
X843787Y193293D02*
X843787Y193293D01*
X843787Y193295D01*
X843789Y193295D01*
X843789Y193293D01*
X843787Y193293D01*
G37*
%LPD*%
%LPC*%
G36*
X558799Y876299D02*
X558799Y876299D01*
X558799Y876301D01*
X558801Y876301D01*
X558801Y876299D01*
X558799Y876299D01*
G37*
%LPD*%
%LPC*%
G36*
X843787Y104393D02*
X843787Y104393D01*
X843787Y104395D01*
X843789Y104395D01*
X843789Y104393D01*
X843787Y104393D01*
G37*
%LPD*%
D10*
X86400Y332800D03*
D11*
X111800Y332800D03*
X137200Y332800D03*
X162600Y332800D03*
X188000Y332800D03*
X213400Y332800D03*
X238800Y332800D03*
X264200Y332800D03*
X289600Y332800D03*
X315000Y332800D03*
X340400Y332800D03*
X365800Y332800D03*
X391200Y332800D03*
X416600Y332800D03*
X442000Y332800D03*
X467400Y332800D03*
X843788Y238506D03*
X908812Y238506D03*
X843788Y193294D03*
X908812Y193294D03*
X843788Y149606D03*
X908812Y149606D03*
X843788Y104394D03*
X908812Y104394D03*
X843788Y327406D03*
X908812Y327406D03*
X843788Y282194D03*
X908812Y282194D03*
D12*
X25400Y711200D03*
D13*
X25400Y685800D03*
X25400Y660400D03*
X25400Y635000D03*
D14*
X457200Y393700D03*
X482600Y876300D03*
X431800Y393700D03*
X406400Y393700D03*
X381000Y393700D03*
X355600Y393700D03*
X482600Y393700D03*
X508000Y393700D03*
X533400Y393700D03*
X574040Y393700D03*
X599440Y393700D03*
X624840Y393700D03*
X650240Y393700D03*
X675640Y393700D03*
X701040Y393700D03*
X726440Y393700D03*
X751840Y393700D03*
X457200Y876300D03*
X431800Y876300D03*
X406400Y876300D03*
X381000Y876300D03*
X355600Y876300D03*
X533400Y876300D03*
X558800Y876300D03*
X584200Y876300D03*
X609600Y876300D03*
X635000Y876300D03*
X660400Y876300D03*
X777240Y393700D03*
X802640Y393700D03*
X685800Y876300D03*
X711200Y876300D03*
M02*
