G04 EAGLE Gerber X2 export*
%TF.Part,Single*%
%TF.FileFunction,Profile,NP*%
%TF.FilePolarity,Positive*%
%TF.GenerationSoftware,Autodesk,EAGLE,9.1.3*%
%TF.CreationDate,2018-12-04T08:52:57Z*%
G75*
%MOMM*%
%FSLAX34Y34*%
%LPD*%
%AMOC8*
5,1,8,0,0,1.08239X$1,22.5*%
G01*
%ADD10C,0.254000*%


D10*
X0Y0D02*
X1012700Y0D01*
X1012700Y914300D01*
X0Y914300D01*
X0Y0D01*
X197907Y875100D02*
X197124Y875169D01*
X196350Y875305D01*
X195591Y875508D01*
X194853Y875777D01*
X194140Y876109D01*
X193460Y876502D01*
X192816Y876953D01*
X192214Y877458D01*
X191658Y878014D01*
X191153Y878616D01*
X190702Y879260D01*
X190309Y879940D01*
X189977Y880653D01*
X189708Y881391D01*
X189505Y882150D01*
X189369Y882924D01*
X189300Y883707D01*
X189300Y884493D01*
X189369Y885276D01*
X189505Y886050D01*
X189708Y886809D01*
X189977Y887547D01*
X190309Y888260D01*
X190702Y888940D01*
X191153Y889584D01*
X191658Y890186D01*
X192214Y890742D01*
X192816Y891247D01*
X193460Y891698D01*
X194140Y892091D01*
X194853Y892423D01*
X195591Y892692D01*
X196350Y892895D01*
X197124Y893032D01*
X197907Y893100D01*
X198693Y893100D01*
X199476Y893032D01*
X200250Y892895D01*
X201009Y892692D01*
X201747Y892423D01*
X202460Y892091D01*
X203140Y891698D01*
X203784Y891247D01*
X204386Y890742D01*
X204942Y890186D01*
X205447Y889584D01*
X205898Y888940D01*
X206291Y888260D01*
X206623Y887547D01*
X206892Y886809D01*
X207095Y886050D01*
X207232Y885276D01*
X207300Y884493D01*
X207300Y883707D01*
X207232Y882924D01*
X207095Y882150D01*
X206892Y881391D01*
X206623Y880653D01*
X206291Y879940D01*
X205898Y879260D01*
X205447Y878616D01*
X204942Y878014D01*
X204386Y877458D01*
X203784Y876953D01*
X203140Y876502D01*
X202460Y876109D01*
X201747Y875777D01*
X201009Y875508D01*
X200250Y875305D01*
X199476Y875169D01*
X198693Y875100D01*
X197907Y875100D01*
X25907Y875100D02*
X25124Y875169D01*
X24350Y875305D01*
X23591Y875508D01*
X22853Y875777D01*
X22140Y876109D01*
X21460Y876502D01*
X20816Y876953D01*
X20214Y877458D01*
X19658Y878014D01*
X19153Y878616D01*
X18702Y879260D01*
X18309Y879940D01*
X17977Y880653D01*
X17708Y881391D01*
X17505Y882150D01*
X17369Y882924D01*
X17300Y883707D01*
X17300Y884493D01*
X17369Y885276D01*
X17505Y886050D01*
X17708Y886809D01*
X17977Y887547D01*
X18309Y888260D01*
X18702Y888940D01*
X19153Y889584D01*
X19658Y890186D01*
X20214Y890742D01*
X20816Y891247D01*
X21460Y891698D01*
X22140Y892091D01*
X22853Y892423D01*
X23591Y892692D01*
X24350Y892895D01*
X25124Y893032D01*
X25907Y893100D01*
X26693Y893100D01*
X27476Y893032D01*
X28250Y892895D01*
X29009Y892692D01*
X29747Y892423D01*
X30460Y892091D01*
X31140Y891698D01*
X31784Y891247D01*
X32386Y890742D01*
X32942Y890186D01*
X33447Y889584D01*
X33898Y888940D01*
X34291Y888260D01*
X34623Y887547D01*
X34892Y886809D01*
X35095Y886050D01*
X35232Y885276D01*
X35300Y884493D01*
X35300Y883707D01*
X35232Y882924D01*
X35095Y882150D01*
X34892Y881391D01*
X34623Y880653D01*
X34291Y879940D01*
X33898Y879260D01*
X33447Y878616D01*
X32942Y878014D01*
X32386Y877458D01*
X31784Y876953D01*
X31140Y876502D01*
X30460Y876109D01*
X29747Y875777D01*
X29009Y875508D01*
X28250Y875305D01*
X27476Y875169D01*
X26693Y875100D01*
X25907Y875100D01*
X25907Y453100D02*
X25124Y453169D01*
X24350Y453305D01*
X23591Y453508D01*
X22853Y453777D01*
X22140Y454109D01*
X21460Y454502D01*
X20816Y454953D01*
X20214Y455458D01*
X19658Y456014D01*
X19153Y456616D01*
X18702Y457260D01*
X18309Y457940D01*
X17977Y458653D01*
X17708Y459391D01*
X17505Y460150D01*
X17369Y460924D01*
X17300Y461707D01*
X17300Y462493D01*
X17369Y463276D01*
X17505Y464050D01*
X17708Y464809D01*
X17977Y465547D01*
X18309Y466260D01*
X18702Y466940D01*
X19153Y467584D01*
X19658Y468186D01*
X20214Y468742D01*
X20816Y469247D01*
X21460Y469698D01*
X22140Y470091D01*
X22853Y470423D01*
X23591Y470692D01*
X24350Y470895D01*
X25124Y471032D01*
X25907Y471100D01*
X26693Y471100D01*
X27476Y471032D01*
X28250Y470895D01*
X29009Y470692D01*
X29747Y470423D01*
X30460Y470091D01*
X31140Y469698D01*
X31784Y469247D01*
X32386Y468742D01*
X32942Y468186D01*
X33447Y467584D01*
X33898Y466940D01*
X34291Y466260D01*
X34623Y465547D01*
X34892Y464809D01*
X35095Y464050D01*
X35232Y463276D01*
X35300Y462493D01*
X35300Y461707D01*
X35232Y460924D01*
X35095Y460150D01*
X34892Y459391D01*
X34623Y458653D01*
X34291Y457940D01*
X33898Y457260D01*
X33447Y456616D01*
X32942Y456014D01*
X32386Y455458D01*
X31784Y454953D01*
X31140Y454502D01*
X30460Y454109D01*
X29747Y453777D01*
X29009Y453508D01*
X28250Y453305D01*
X27476Y453169D01*
X26693Y453100D01*
X25907Y453100D01*
X197907Y453100D02*
X197124Y453169D01*
X196350Y453305D01*
X195591Y453508D01*
X194853Y453777D01*
X194140Y454109D01*
X193460Y454502D01*
X192816Y454953D01*
X192214Y455458D01*
X191658Y456014D01*
X191153Y456616D01*
X190702Y457260D01*
X190309Y457940D01*
X189977Y458653D01*
X189708Y459391D01*
X189505Y460150D01*
X189369Y460924D01*
X189300Y461707D01*
X189300Y462493D01*
X189369Y463276D01*
X189505Y464050D01*
X189708Y464809D01*
X189977Y465547D01*
X190309Y466260D01*
X190702Y466940D01*
X191153Y467584D01*
X191658Y468186D01*
X192214Y468742D01*
X192816Y469247D01*
X193460Y469698D01*
X194140Y470091D01*
X194853Y470423D01*
X195591Y470692D01*
X196350Y470895D01*
X197124Y471032D01*
X197907Y471100D01*
X198693Y471100D01*
X199476Y471032D01*
X200250Y470895D01*
X201009Y470692D01*
X201747Y470423D01*
X202460Y470091D01*
X203140Y469698D01*
X203784Y469247D01*
X204386Y468742D01*
X204942Y468186D01*
X205447Y467584D01*
X205898Y466940D01*
X206291Y466260D01*
X206623Y465547D01*
X206892Y464809D01*
X207095Y464050D01*
X207232Y463276D01*
X207300Y462493D01*
X207300Y461707D01*
X207232Y460924D01*
X207095Y460150D01*
X206892Y459391D01*
X206623Y458653D01*
X206291Y457940D01*
X205898Y457260D01*
X205447Y456616D01*
X204942Y456014D01*
X204386Y455458D01*
X203784Y454953D01*
X203140Y454502D01*
X202460Y454109D01*
X201747Y453777D01*
X201009Y453508D01*
X200250Y453305D01*
X199476Y453169D01*
X198693Y453100D01*
X197907Y453100D01*
M02*
