G04 EAGLE Gerber X2 export*
%TF.Part,Single*%
%TF.FileFunction,Soldermask,Bot,1*%
%TF.FilePolarity,Negative*%
%TF.GenerationSoftware,Autodesk,EAGLE,9.1.3*%
%TF.CreationDate,2018-12-04T08:52:57Z*%
G75*
%MOMM*%
%FSLAX34Y34*%
%LPD*%
%AMOC8*
5,1,8,0,0,1.08239X$1,22.5*%
G01*
%ADD10R,2.082800X2.082800*%
%ADD11C,2.082800*%
%ADD12C,2.003200*%
%ADD13R,1.711200X1.711200*%
%ADD14C,1.711200*%
%ADD15P,2.034460X8X202.500000*%


D10*
X86400Y332800D03*
D11*
X111800Y332800D03*
X137200Y332800D03*
X162600Y332800D03*
X188000Y332800D03*
X213400Y332800D03*
X238800Y332800D03*
X264200Y332800D03*
X289600Y332800D03*
X315000Y332800D03*
X340400Y332800D03*
X365800Y332800D03*
X391200Y332800D03*
X416600Y332800D03*
X442000Y332800D03*
X467400Y332800D03*
X843788Y238506D03*
X908812Y238506D03*
X843788Y193294D03*
X908812Y193294D03*
X843788Y149606D03*
X908812Y149606D03*
X843788Y104394D03*
X908812Y104394D03*
X843788Y327406D03*
X908812Y327406D03*
X843788Y282194D03*
X908812Y282194D03*
D12*
X198300Y884100D03*
X26300Y884100D03*
X26300Y462100D03*
X198300Y462100D03*
D13*
X25400Y711200D03*
D14*
X25400Y685800D03*
X25400Y660400D03*
X25400Y635000D03*
D15*
X457200Y393700D03*
X482600Y876300D03*
X431800Y393700D03*
X406400Y393700D03*
X381000Y393700D03*
X355600Y393700D03*
X482600Y393700D03*
X508000Y393700D03*
X533400Y393700D03*
X574040Y393700D03*
X599440Y393700D03*
X624840Y393700D03*
X650240Y393700D03*
X675640Y393700D03*
X701040Y393700D03*
X726440Y393700D03*
X751840Y393700D03*
X457200Y876300D03*
X431800Y876300D03*
X406400Y876300D03*
X381000Y876300D03*
X355600Y876300D03*
X533400Y876300D03*
X558800Y876300D03*
X584200Y876300D03*
X609600Y876300D03*
X635000Y876300D03*
X660400Y876300D03*
X777240Y393700D03*
X802640Y393700D03*
X685800Y876300D03*
X711200Y876300D03*
M02*
